<mxfile host="app.diagrams.net" agent="Mozilla/5.0 (Windows NT 10.0; Win64; x64) AppleWebKit/537.36 (KHTML, like Gecko) Chrome/137.0.0.0 Safari/537.36" version="27.1.6">
  <diagram id="u_7HvgCCAcrlvR4ImWiG" name="Page-3">
    <mxGraphModel dx="5883" dy="2703" grid="0" gridSize="10" guides="1" tooltips="1" connect="1" arrows="1" fold="1" page="0" pageScale="1" pageWidth="850" pageHeight="1100" math="0" shadow="0">
      <root>
        <mxCell id="0" />
        <mxCell id="1" parent="0" />
        <mxCell id="BcuZdG-WMwdQdfmydHHf-1" value="" style="endArrow=classic;html=1;rounded=0;fontSize=12;startSize=8;endSize=8;curved=1;" parent="1" edge="1">
          <mxGeometry width="50" height="50" relative="1" as="geometry">
            <mxPoint x="-140" y="1230" as="sourcePoint" />
            <mxPoint x="-90" y="1180" as="targetPoint" />
          </mxGeometry>
        </mxCell>
        <mxCell id="BcuZdG-WMwdQdfmydHHf-2" value="X = y" style="edgeLabel;html=1;align=center;verticalAlign=middle;resizable=0;points=[];fontSize=12;rotation=-45;" parent="BcuZdG-WMwdQdfmydHHf-1" vertex="1" connectable="0">
          <mxGeometry x="0.3615" y="3" relative="1" as="geometry">
            <mxPoint x="-22" y="6" as="offset" />
          </mxGeometry>
        </mxCell>
        <mxCell id="BcuZdG-WMwdQdfmydHHf-3" value="" style="endArrow=classic;html=1;rounded=0;fontSize=12;startSize=8;endSize=8;curved=1;" parent="1" edge="1">
          <mxGeometry width="50" height="50" relative="1" as="geometry">
            <mxPoint x="-150" y="1290" as="sourcePoint" />
            <mxPoint x="-80" y="1290" as="targetPoint" />
          </mxGeometry>
        </mxCell>
        <mxCell id="BcuZdG-WMwdQdfmydHHf-4" value="X = y" style="edgeLabel;html=1;align=center;verticalAlign=middle;resizable=0;points=[];fontSize=12;rotation=0;" parent="BcuZdG-WMwdQdfmydHHf-3" vertex="1" connectable="0">
          <mxGeometry x="0.3615" y="3" relative="1" as="geometry">
            <mxPoint x="-18" y="-7" as="offset" />
          </mxGeometry>
        </mxCell>
        <mxCell id="BcuZdG-WMwdQdfmydHHf-5" value="" style="endArrow=classic;html=1;rounded=0;fontSize=12;startSize=8;endSize=8;curved=1;" parent="1" edge="1">
          <mxGeometry width="50" height="50" relative="1" as="geometry">
            <mxPoint x="-151" y="1320" as="sourcePoint" />
            <mxPoint x="-80" y="1360" as="targetPoint" />
          </mxGeometry>
        </mxCell>
        <mxCell id="BcuZdG-WMwdQdfmydHHf-6" value="X = y" style="edgeLabel;html=1;align=center;verticalAlign=middle;resizable=0;points=[];fontSize=12;rotation=30;" parent="BcuZdG-WMwdQdfmydHHf-5" vertex="1" connectable="0">
          <mxGeometry x="0.3615" y="3" relative="1" as="geometry">
            <mxPoint x="-9" y="-15" as="offset" />
          </mxGeometry>
        </mxCell>
        <mxCell id="BcuZdG-WMwdQdfmydHHf-7" value="" style="ellipse;whiteSpace=wrap;html=1;aspect=fixed;" parent="1" vertex="1">
          <mxGeometry x="-220" y="1270" width="50" height="50" as="geometry" />
        </mxCell>
        <mxCell id="BcuZdG-WMwdQdfmydHHf-8" value="" style="html=1;labelBackgroundColor=#ffffff;startArrow=none;startFill=0;startSize=6;endArrow=classic;endFill=1;endSize=6;jettySize=auto;orthogonalLoop=1;strokeWidth=1;dashed=1;fontSize=14;rounded=0;" parent="1" edge="1">
          <mxGeometry width="60" height="60" relative="1" as="geometry">
            <mxPoint x="-150" y="1460" as="sourcePoint" />
            <mxPoint x="-90" y="1400" as="targetPoint" />
          </mxGeometry>
        </mxCell>
        <mxCell id="BcuZdG-WMwdQdfmydHHf-14" value="&lt;font style=&quot;font-size: 20px;&quot;&gt;1&lt;/font&gt;" style="ellipse;whiteSpace=wrap;html=1;aspect=fixed;" parent="1" vertex="1">
          <mxGeometry x="217" y="1261" width="50" height="50" as="geometry" />
        </mxCell>
        <mxCell id="BcuZdG-WMwdQdfmydHHf-15" value="" style="endArrow=classic;html=1;rounded=0;fontSize=12;startSize=8;endSize=8;curved=1;exitX=0.973;exitY=0.32;exitDx=0;exitDy=0;entryX=0.033;entryY=0.74;entryDx=0;entryDy=0;exitPerimeter=0;entryPerimeter=0;" parent="1" source="BcuZdG-WMwdQdfmydHHf-14" target="BcuZdG-WMwdQdfmydHHf-18" edge="1">
          <mxGeometry width="50" height="50" relative="1" as="geometry">
            <mxPoint x="273" y="1283" as="sourcePoint" />
            <mxPoint x="392" y="1203" as="targetPoint" />
          </mxGeometry>
        </mxCell>
        <mxCell id="BcuZdG-WMwdQdfmydHHf-16" value="&lt;font style=&quot;font-size: 20px;&quot;&gt;A = 2&lt;/font&gt;" style="edgeLabel;html=1;align=center;verticalAlign=middle;resizable=0;points=[];fontSize=12;rotation=-20;" parent="BcuZdG-WMwdQdfmydHHf-15" vertex="1" connectable="0">
          <mxGeometry x="0.2611" y="3" relative="1" as="geometry">
            <mxPoint x="-19" y="-5" as="offset" />
          </mxGeometry>
        </mxCell>
        <mxCell id="BcuZdG-WMwdQdfmydHHf-18" value="&lt;font style=&quot;font-size: 20px;&quot;&gt;2&lt;/font&gt;" style="ellipse;whiteSpace=wrap;html=1;aspect=fixed;" parent="1" vertex="1">
          <mxGeometry x="416" y="1172" width="50" height="50" as="geometry" />
        </mxCell>
        <mxCell id="BcuZdG-WMwdQdfmydHHf-19" value="" style="endArrow=classic;html=1;rounded=0;fontSize=12;startSize=8;endSize=8;curved=1;exitX=1;exitY=0.5;exitDx=0;exitDy=0;entryX=0.021;entryY=0.581;entryDx=0;entryDy=0;entryPerimeter=0;" parent="1" source="BcuZdG-WMwdQdfmydHHf-18" target="BcuZdG-WMwdQdfmydHHf-21" edge="1">
          <mxGeometry width="50" height="50" relative="1" as="geometry">
            <mxPoint x="519" y="1182" as="sourcePoint" />
            <mxPoint x="663" y="1193" as="targetPoint" />
            <Array as="points">
              <mxPoint x="567" y="1193" />
            </Array>
          </mxGeometry>
        </mxCell>
        <mxCell id="BcuZdG-WMwdQdfmydHHf-20" value="&lt;font style=&quot;font-size: 20px;&quot;&gt;B = 4&lt;/font&gt;" style="edgeLabel;html=1;align=center;verticalAlign=middle;resizable=0;points=[];fontSize=12;rotation=0;" parent="BcuZdG-WMwdQdfmydHHf-19" vertex="1" connectable="0">
          <mxGeometry x="0.2611" y="3" relative="1" as="geometry">
            <mxPoint x="-21" y="-10" as="offset" />
          </mxGeometry>
        </mxCell>
        <mxCell id="BcuZdG-WMwdQdfmydHHf-21" value="&lt;font style=&quot;font-size: 20px;&quot;&gt;3&lt;/font&gt;" style="ellipse;whiteSpace=wrap;html=1;aspect=fixed;" parent="1" vertex="1">
          <mxGeometry x="670" y="1165" width="50" height="50" as="geometry" />
        </mxCell>
        <mxCell id="BcuZdG-WMwdQdfmydHHf-22" value="" style="endArrow=classic;html=1;rounded=0;fontSize=12;startSize=8;endSize=8;curved=1;exitX=1;exitY=0.5;exitDx=0;exitDy=0;entryX=0.021;entryY=0.581;entryDx=0;entryDy=0;entryPerimeter=0;" parent="1" source="BcuZdG-WMwdQdfmydHHf-21" target="BcuZdG-WMwdQdfmydHHf-24" edge="1">
          <mxGeometry width="50" height="50" relative="1" as="geometry">
            <mxPoint x="731" y="1192" as="sourcePoint" />
            <mxPoint x="928" y="1188" as="targetPoint" />
            <Array as="points">
              <mxPoint x="832" y="1188" />
            </Array>
          </mxGeometry>
        </mxCell>
        <mxCell id="BcuZdG-WMwdQdfmydHHf-23" value="&lt;font style=&quot;font-size: 20px;&quot;&gt;C = 10&lt;/font&gt;" style="edgeLabel;html=1;align=center;verticalAlign=middle;resizable=0;points=[];fontSize=12;rotation=0;" parent="BcuZdG-WMwdQdfmydHHf-22" vertex="1" connectable="0">
          <mxGeometry x="0.2611" y="3" relative="1" as="geometry">
            <mxPoint x="-21" y="-10" as="offset" />
          </mxGeometry>
        </mxCell>
        <mxCell id="BcuZdG-WMwdQdfmydHHf-24" value="&lt;font style=&quot;font-size: 20px;&quot;&gt;4&lt;/font&gt;" style="ellipse;whiteSpace=wrap;html=1;aspect=fixed;" parent="1" vertex="1">
          <mxGeometry x="935" y="1160" width="50" height="50" as="geometry" />
        </mxCell>
        <mxCell id="BcuZdG-WMwdQdfmydHHf-27" value="&lt;font style=&quot;font-size: 20px;&quot;&gt;5&lt;/font&gt;" style="ellipse;whiteSpace=wrap;html=1;aspect=fixed;" parent="1" vertex="1">
          <mxGeometry x="921" y="1032" width="50" height="50" as="geometry" />
        </mxCell>
        <mxCell id="BcuZdG-WMwdQdfmydHHf-31" value="" style="endArrow=classic;html=1;rounded=0;fontSize=12;startSize=8;endSize=8;curved=1;exitX=1;exitY=0.5;exitDx=0;exitDy=0;entryX=0.033;entryY=0.74;entryDx=0;entryDy=0;entryPerimeter=0;" parent="1" source="BcuZdG-WMwdQdfmydHHf-24" target="BcuZdG-WMwdQdfmydHHf-33" edge="1">
          <mxGeometry width="50" height="50" relative="1" as="geometry">
            <mxPoint x="790" y="1440" as="sourcePoint" />
            <mxPoint x="916" y="1366" as="targetPoint" />
          </mxGeometry>
        </mxCell>
        <mxCell id="BcuZdG-WMwdQdfmydHHf-32" value="&lt;font style=&quot;font-size: 20px;&quot;&gt;F = 6&lt;/font&gt;" style="edgeLabel;html=1;align=center;verticalAlign=middle;resizable=0;points=[];fontSize=12;rotation=0;" parent="BcuZdG-WMwdQdfmydHHf-31" vertex="1" connectable="0">
          <mxGeometry x="0.2611" y="3" relative="1" as="geometry">
            <mxPoint x="-17" y="-15" as="offset" />
          </mxGeometry>
        </mxCell>
        <mxCell id="BcuZdG-WMwdQdfmydHHf-33" value="&lt;font style=&quot;font-size: 20px;&quot;&gt;6&lt;/font&gt;" style="ellipse;whiteSpace=wrap;html=1;aspect=fixed;" parent="1" vertex="1">
          <mxGeometry x="1184" y="1156" width="50" height="50" as="geometry" />
        </mxCell>
        <mxCell id="BcuZdG-WMwdQdfmydHHf-34" value="" style="html=1;labelBackgroundColor=#ffffff;startArrow=none;startFill=0;startSize=6;endArrow=classic;endFill=1;endSize=6;jettySize=auto;orthogonalLoop=1;strokeWidth=1;dashed=1;fontSize=14;rounded=0;entryX=0.373;entryY=0.045;entryDx=0;entryDy=0;entryPerimeter=0;exitX=1;exitY=0;exitDx=0;exitDy=0;" parent="1" source="BcuZdG-WMwdQdfmydHHf-27" target="BcuZdG-WMwdQdfmydHHf-33" edge="1">
          <mxGeometry width="60" height="60" relative="1" as="geometry">
            <mxPoint x="996" y="1311" as="sourcePoint" />
            <mxPoint x="1056" y="1251" as="targetPoint" />
          </mxGeometry>
        </mxCell>
        <mxCell id="BcuZdG-WMwdQdfmydHHf-36" value="&lt;font style=&quot;font-size: 20px;&quot;&gt;D1&lt;/font&gt;" style="edgeLabel;html=1;align=center;verticalAlign=middle;resizable=0;points=[];fontSize=12;" parent="BcuZdG-WMwdQdfmydHHf-34" vertex="1" connectable="0">
          <mxGeometry x="0.2882" relative="1" as="geometry">
            <mxPoint x="2" y="-21" as="offset" />
          </mxGeometry>
        </mxCell>
        <mxCell id="BcuZdG-WMwdQdfmydHHf-37" value="" style="endArrow=classic;html=1;rounded=0;fontSize=12;startSize=8;endSize=8;curved=1;exitX=1;exitY=0.5;exitDx=0;exitDy=0;entryX=0.033;entryY=0.74;entryDx=0;entryDy=0;entryPerimeter=0;" parent="1" source="BcuZdG-WMwdQdfmydHHf-33" target="BcuZdG-WMwdQdfmydHHf-39" edge="1">
          <mxGeometry width="50" height="50" relative="1" as="geometry">
            <mxPoint x="1259" y="1189" as="sourcePoint" />
            <mxPoint x="1190" y="1370" as="targetPoint" />
          </mxGeometry>
        </mxCell>
        <mxCell id="BcuZdG-WMwdQdfmydHHf-38" value="&lt;font style=&quot;font-size: 20px;&quot;&gt;E = 8&lt;/font&gt;" style="edgeLabel;html=1;align=center;verticalAlign=middle;resizable=0;points=[];fontSize=12;rotation=0;" parent="BcuZdG-WMwdQdfmydHHf-37" vertex="1" connectable="0">
          <mxGeometry x="0.2611" y="3" relative="1" as="geometry">
            <mxPoint x="-17" y="-15" as="offset" />
          </mxGeometry>
        </mxCell>
        <mxCell id="BcuZdG-WMwdQdfmydHHf-39" value="&lt;font style=&quot;font-size: 20px;&quot;&gt;16&lt;/font&gt;" style="ellipse;whiteSpace=wrap;html=1;aspect=fixed;" parent="1" vertex="1">
          <mxGeometry x="1461" y="1148" width="50" height="50" as="geometry" />
        </mxCell>
        <mxCell id="BcuZdG-WMwdQdfmydHHf-40" value="" style="endArrow=classic;html=1;rounded=0;fontSize=12;startSize=8;endSize=8;curved=1;exitX=1;exitY=1;exitDx=0;exitDy=0;entryX=-0.009;entryY=0.373;entryDx=0;entryDy=0;entryPerimeter=0;" parent="1" source="BcuZdG-WMwdQdfmydHHf-14" target="BcuZdG-WMwdQdfmydHHf-42" edge="1">
          <mxGeometry width="50" height="50" relative="1" as="geometry">
            <mxPoint x="272" y="1314" as="sourcePoint" />
            <mxPoint x="390" y="1372" as="targetPoint" />
          </mxGeometry>
        </mxCell>
        <mxCell id="BcuZdG-WMwdQdfmydHHf-41" value="&lt;font style=&quot;font-size: 20px;&quot;&gt;H = 5&lt;/font&gt;" style="edgeLabel;html=1;align=center;verticalAlign=middle;resizable=0;points=[];fontSize=12;rotation=30;" parent="BcuZdG-WMwdQdfmydHHf-40" vertex="1" connectable="0">
          <mxGeometry x="0.3615" y="3" relative="1" as="geometry">
            <mxPoint x="-6" y="-20" as="offset" />
          </mxGeometry>
        </mxCell>
        <mxCell id="BcuZdG-WMwdQdfmydHHf-42" value="&lt;font style=&quot;font-size: 20px;&quot;&gt;7&lt;/font&gt;" style="ellipse;whiteSpace=wrap;html=1;aspect=fixed;" parent="1" vertex="1">
          <mxGeometry x="389" y="1352" width="50" height="50" as="geometry" />
        </mxCell>
        <mxCell id="BcuZdG-WMwdQdfmydHHf-46" value="" style="endArrow=classic;html=1;rounded=0;fontSize=12;startSize=8;endSize=8;curved=1;entryX=-0.009;entryY=0.373;entryDx=0;entryDy=0;entryPerimeter=0;" parent="1" source="BcuZdG-WMwdQdfmydHHf-42" target="BcuZdG-WMwdQdfmydHHf-48" edge="1">
          <mxGeometry width="50" height="50" relative="1" as="geometry">
            <mxPoint x="365.80000000000007" y="1320" as="sourcePoint" />
            <mxPoint x="515" y="1423.1399999999999" as="targetPoint" />
          </mxGeometry>
        </mxCell>
        <mxCell id="BcuZdG-WMwdQdfmydHHf-47" value="&lt;font style=&quot;font-size: 20px;&quot;&gt;I = 12&lt;/font&gt;" style="edgeLabel;html=1;align=center;verticalAlign=middle;resizable=0;points=[];fontSize=12;rotation=25;" parent="BcuZdG-WMwdQdfmydHHf-46" vertex="1" connectable="0">
          <mxGeometry x="0.3615" y="3" relative="1" as="geometry">
            <mxPoint x="-7" y="-20" as="offset" />
          </mxGeometry>
        </mxCell>
        <mxCell id="BcuZdG-WMwdQdfmydHHf-48" value="&lt;font style=&quot;font-size: 20px;&quot;&gt;8&lt;/font&gt;" style="ellipse;whiteSpace=wrap;html=1;aspect=fixed;" parent="1" vertex="1">
          <mxGeometry x="531" y="1419.9999999999998" width="50" height="50" as="geometry" />
        </mxCell>
        <mxCell id="BcuZdG-WMwdQdfmydHHf-49" value="&lt;font style=&quot;font-size: 20px;&quot;&gt;9&lt;/font&gt;" style="ellipse;whiteSpace=wrap;html=1;aspect=fixed;" parent="1" vertex="1">
          <mxGeometry x="684.5" y="1321.9999999999998" width="50" height="50" as="geometry" />
        </mxCell>
        <mxCell id="BcuZdG-WMwdQdfmydHHf-50" value="" style="html=1;labelBackgroundColor=#ffffff;startArrow=none;startFill=0;startSize=6;endArrow=classic;endFill=1;endSize=6;jettySize=auto;orthogonalLoop=1;strokeWidth=1;dashed=1;fontSize=14;rounded=0;exitX=1;exitY=0.5;exitDx=0;exitDy=0;" parent="1" source="BcuZdG-WMwdQdfmydHHf-48" target="BcuZdG-WMwdQdfmydHHf-49" edge="1">
          <mxGeometry width="60" height="60" relative="1" as="geometry">
            <mxPoint x="603" y="1443" as="sourcePoint" />
            <mxPoint x="663" y="1383" as="targetPoint" />
          </mxGeometry>
        </mxCell>
        <mxCell id="7_4aUBkvJU-1F4oMu9qQ-45" value="&lt;font style=&quot;font-size: 20px;&quot;&gt;D3&lt;/font&gt;" style="edgeLabel;html=1;align=center;verticalAlign=middle;resizable=0;points=[];" parent="BcuZdG-WMwdQdfmydHHf-50" vertex="1" connectable="0">
          <mxGeometry x="0.3023" y="1" relative="1" as="geometry">
            <mxPoint x="-12" y="-15" as="offset" />
          </mxGeometry>
        </mxCell>
        <mxCell id="BcuZdG-WMwdQdfmydHHf-51" value="" style="html=1;labelBackgroundColor=#ffffff;startArrow=none;startFill=0;startSize=6;endArrow=classic;endFill=1;endSize=6;jettySize=auto;orthogonalLoop=1;strokeWidth=1;dashed=1;fontSize=14;rounded=0;entryX=0;entryY=0;entryDx=0;entryDy=0;exitX=0.5;exitY=1;exitDx=0;exitDy=0;" parent="1" source="BcuZdG-WMwdQdfmydHHf-21" target="BcuZdG-WMwdQdfmydHHf-49" edge="1">
          <mxGeometry width="60" height="60" relative="1" as="geometry">
            <mxPoint x="563" y="1316" as="sourcePoint" />
            <mxPoint x="623" y="1256" as="targetPoint" />
          </mxGeometry>
        </mxCell>
        <mxCell id="7_4aUBkvJU-1F4oMu9qQ-44" value="&lt;font style=&quot;font-size: 20px;&quot;&gt;D2&lt;/font&gt;" style="edgeLabel;html=1;align=center;verticalAlign=middle;resizable=0;points=[];" parent="BcuZdG-WMwdQdfmydHHf-51" vertex="1" connectable="0">
          <mxGeometry x="-0.12" y="1" relative="1" as="geometry">
            <mxPoint x="18" as="offset" />
          </mxGeometry>
        </mxCell>
        <mxCell id="BcuZdG-WMwdQdfmydHHf-52" value="" style="endArrow=classic;html=1;rounded=0;fontSize=12;startSize=8;endSize=8;curved=1;entryX=-0.009;entryY=0.373;entryDx=0;entryDy=0;entryPerimeter=0;exitX=1;exitY=1;exitDx=0;exitDy=0;" parent="1" source="BcuZdG-WMwdQdfmydHHf-48" target="BcuZdG-WMwdQdfmydHHf-54" edge="1">
          <mxGeometry width="50" height="50" relative="1" as="geometry">
            <mxPoint x="576" y="1469" as="sourcePoint" />
            <mxPoint x="654" y="1505.1399999999999" as="targetPoint" />
          </mxGeometry>
        </mxCell>
        <mxCell id="BcuZdG-WMwdQdfmydHHf-53" value="&lt;font style=&quot;font-size: 20px;&quot;&gt;L = 7&lt;/font&gt;" style="edgeLabel;html=1;align=center;verticalAlign=middle;resizable=0;points=[];fontSize=12;rotation=25;" parent="BcuZdG-WMwdQdfmydHHf-52" vertex="1" connectable="0">
          <mxGeometry x="0.3615" y="3" relative="1" as="geometry">
            <mxPoint x="-7" y="-18" as="offset" />
          </mxGeometry>
        </mxCell>
        <mxCell id="BcuZdG-WMwdQdfmydHHf-54" value="&lt;font style=&quot;font-size: 20px;&quot;&gt;11&lt;/font&gt;" style="ellipse;whiteSpace=wrap;html=1;aspect=fixed;" parent="1" vertex="1">
          <mxGeometry x="706" y="1515.9999999999998" width="50" height="50" as="geometry" />
        </mxCell>
        <mxCell id="BcuZdG-WMwdQdfmydHHf-55" value="" style="endArrow=classic;html=1;rounded=0;fontSize=12;startSize=8;endSize=8;curved=1;exitX=1;exitY=1;exitDx=0;exitDy=0;entryX=0.021;entryY=0.581;entryDx=0;entryDy=0;entryPerimeter=0;" parent="1" source="BcuZdG-WMwdQdfmydHHf-49" target="BcuZdG-WMwdQdfmydHHf-57" edge="1">
          <mxGeometry width="50" height="50" relative="1" as="geometry">
            <mxPoint x="739" y="1442" as="sourcePoint" />
            <mxPoint x="936" y="1438" as="targetPoint" />
            <Array as="points">
              <mxPoint x="840" y="1409" />
            </Array>
          </mxGeometry>
        </mxCell>
        <mxCell id="BcuZdG-WMwdQdfmydHHf-56" value="&lt;font style=&quot;font-size: 20px;&quot;&gt;J = 4&lt;/font&gt;" style="edgeLabel;html=1;align=center;verticalAlign=middle;resizable=0;points=[];fontSize=12;rotation=0;" parent="BcuZdG-WMwdQdfmydHHf-55" vertex="1" connectable="0">
          <mxGeometry x="0.2611" y="3" relative="1" as="geometry">
            <mxPoint x="-19" y="-27" as="offset" />
          </mxGeometry>
        </mxCell>
        <mxCell id="BcuZdG-WMwdQdfmydHHf-57" value="&lt;font style=&quot;font-size: 20px;&quot;&gt;10&lt;/font&gt;" style="ellipse;whiteSpace=wrap;html=1;aspect=fixed;" parent="1" vertex="1">
          <mxGeometry x="899" y="1400" width="50" height="50" as="geometry" />
        </mxCell>
        <mxCell id="BcuZdG-WMwdQdfmydHHf-58" value="" style="endArrow=classic;html=1;rounded=0;fontSize=12;startSize=8;endSize=8;curved=1;exitX=0.729;exitY=0.043;exitDx=0;exitDy=0;entryX=0.05;entryY=0.712;entryDx=0;entryDy=0;exitPerimeter=0;entryPerimeter=0;" parent="1" source="BcuZdG-WMwdQdfmydHHf-21" target="BcuZdG-WMwdQdfmydHHf-27" edge="1">
          <mxGeometry width="50" height="50" relative="1" as="geometry">
            <mxPoint x="647" y="1096" as="sourcePoint" />
            <mxPoint x="799" y="1028" as="targetPoint" />
          </mxGeometry>
        </mxCell>
        <mxCell id="BcuZdG-WMwdQdfmydHHf-59" value="&lt;font style=&quot;font-size: 20px;&quot;&gt;D = 6&lt;/font&gt;" style="edgeLabel;html=1;align=center;verticalAlign=middle;resizable=0;points=[];fontSize=12;rotation=-30;" parent="BcuZdG-WMwdQdfmydHHf-58" vertex="1" connectable="0">
          <mxGeometry x="0.2611" y="3" relative="1" as="geometry">
            <mxPoint x="-19" y="-6" as="offset" />
          </mxGeometry>
        </mxCell>
        <mxCell id="BcuZdG-WMwdQdfmydHHf-60" value="" style="html=1;labelBackgroundColor=#ffffff;startArrow=none;startFill=0;startSize=6;endArrow=classic;endFill=1;endSize=6;jettySize=auto;orthogonalLoop=1;strokeWidth=1;dashed=1;fontSize=14;rounded=0;entryX=0.5;entryY=0;entryDx=0;entryDy=0;exitX=0;exitY=1;exitDx=0;exitDy=0;" parent="1" source="BcuZdG-WMwdQdfmydHHf-24" target="BcuZdG-WMwdQdfmydHHf-57" edge="1">
          <mxGeometry width="60" height="60" relative="1" as="geometry">
            <mxPoint x="928" y="1226" as="sourcePoint" />
            <mxPoint x="925" y="1340" as="targetPoint" />
          </mxGeometry>
        </mxCell>
        <mxCell id="7_4aUBkvJU-1F4oMu9qQ-46" value="&lt;font style=&quot;font-size: 20px;&quot;&gt;D4&lt;/font&gt;" style="edgeLabel;html=1;align=center;verticalAlign=middle;resizable=0;points=[];" parent="BcuZdG-WMwdQdfmydHHf-60" vertex="1" connectable="0">
          <mxGeometry x="0.1554" y="2" relative="1" as="geometry">
            <mxPoint x="16" y="-14" as="offset" />
          </mxGeometry>
        </mxCell>
        <mxCell id="BcuZdG-WMwdQdfmydHHf-61" value="" style="endArrow=classic;html=1;rounded=0;fontSize=12;startSize=8;endSize=8;curved=1;exitX=0.933;exitY=0.647;exitDx=0;exitDy=0;exitPerimeter=0;entryX=0.04;entryY=0.407;entryDx=0;entryDy=0;entryPerimeter=0;" parent="1" source="BcuZdG-WMwdQdfmydHHf-57" target="BcuZdG-WMwdQdfmydHHf-63" edge="1">
          <mxGeometry width="50" height="50" relative="1" as="geometry">
            <mxPoint x="977" y="1434" as="sourcePoint" />
            <mxPoint x="1155" y="1431" as="targetPoint" />
          </mxGeometry>
        </mxCell>
        <mxCell id="BcuZdG-WMwdQdfmydHHf-62" value="&lt;font style=&quot;font-size: 20px;&quot;&gt;K = 8&lt;/font&gt;" style="edgeLabel;html=1;align=center;verticalAlign=middle;resizable=0;points=[];fontSize=12;rotation=0;" parent="BcuZdG-WMwdQdfmydHHf-61" vertex="1" connectable="0">
          <mxGeometry x="0.2611" y="3" relative="1" as="geometry">
            <mxPoint x="-17" y="-11" as="offset" />
          </mxGeometry>
        </mxCell>
        <mxCell id="BcuZdG-WMwdQdfmydHHf-63" value="&lt;font style=&quot;font-size: 20px;&quot;&gt;12&lt;/font&gt;" style="ellipse;whiteSpace=wrap;html=1;aspect=fixed;" parent="1" vertex="1">
          <mxGeometry x="1219" y="1415" width="50" height="50" as="geometry" />
        </mxCell>
        <mxCell id="7_4aUBkvJU-1F4oMu9qQ-1" value="" style="html=1;labelBackgroundColor=#ffffff;startArrow=none;startFill=0;startSize=6;endArrow=classic;endFill=1;endSize=6;jettySize=auto;orthogonalLoop=1;strokeWidth=1;dashed=1;fontSize=14;rounded=0;entryX=1;entryY=0.5;entryDx=0;entryDy=0;exitX=0;exitY=1;exitDx=0;exitDy=0;" parent="1" source="BcuZdG-WMwdQdfmydHHf-57" target="BcuZdG-WMwdQdfmydHHf-54" edge="1">
          <mxGeometry width="60" height="60" relative="1" as="geometry">
            <mxPoint x="839" y="1535.1399999999999" as="sourcePoint" />
            <mxPoint x="809" y="1735.1399999999999" as="targetPoint" />
          </mxGeometry>
        </mxCell>
        <mxCell id="7_4aUBkvJU-1F4oMu9qQ-47" value="&lt;font style=&quot;font-size: 20px;&quot;&gt;D5&lt;/font&gt;" style="edgeLabel;html=1;align=center;verticalAlign=middle;resizable=0;points=[];" parent="7_4aUBkvJU-1F4oMu9qQ-1" vertex="1" connectable="0">
          <mxGeometry x="-0.1926" y="-1" relative="1" as="geometry">
            <mxPoint x="10" y="12" as="offset" />
          </mxGeometry>
        </mxCell>
        <mxCell id="7_4aUBkvJU-1F4oMu9qQ-2" value="" style="endArrow=classic;html=1;rounded=0;fontSize=12;startSize=8;endSize=8;curved=1;entryX=-0.009;entryY=0.373;entryDx=0;entryDy=0;entryPerimeter=0;exitX=1;exitY=1;exitDx=0;exitDy=0;" parent="1" source="BcuZdG-WMwdQdfmydHHf-54" target="7_4aUBkvJU-1F4oMu9qQ-4" edge="1">
          <mxGeometry width="50" height="50" relative="1" as="geometry">
            <mxPoint x="706" y="1535.14" as="sourcePoint" />
            <mxPoint x="803" y="1594.28" as="targetPoint" />
          </mxGeometry>
        </mxCell>
        <mxCell id="7_4aUBkvJU-1F4oMu9qQ-3" value="&lt;font style=&quot;font-size: 20px;&quot;&gt;M = 14&lt;/font&gt;" style="edgeLabel;html=1;align=center;verticalAlign=middle;resizable=0;points=[];fontSize=12;rotation=0;" parent="7_4aUBkvJU-1F4oMu9qQ-2" vertex="1" connectable="0">
          <mxGeometry x="0.3615" y="3" relative="1" as="geometry">
            <mxPoint x="-9" y="-15" as="offset" />
          </mxGeometry>
        </mxCell>
        <mxCell id="7_4aUBkvJU-1F4oMu9qQ-4" value="&lt;font style=&quot;font-size: 20px;&quot;&gt;14&lt;/font&gt;" style="ellipse;whiteSpace=wrap;html=1;aspect=fixed;" parent="1" vertex="1">
          <mxGeometry x="1116" y="1545" width="50" height="50" as="geometry" />
        </mxCell>
        <mxCell id="7_4aUBkvJU-1F4oMu9qQ-5" value="" style="html=1;labelBackgroundColor=#ffffff;startArrow=none;startFill=0;startSize=6;endArrow=classic;endFill=1;endSize=6;jettySize=auto;orthogonalLoop=1;strokeWidth=1;dashed=1;fontSize=14;rounded=0;entryX=0.643;entryY=-0.023;entryDx=0;entryDy=0;exitX=0.375;exitY=0.923;exitDx=0;exitDy=0;entryPerimeter=0;exitPerimeter=0;" parent="1" source="BcuZdG-WMwdQdfmydHHf-33" target="7_4aUBkvJU-1F4oMu9qQ-4" edge="1">
          <mxGeometry width="60" height="60" relative="1" as="geometry">
            <mxPoint x="1195" y="1264" as="sourcePoint" />
            <mxPoint x="1165" y="1464" as="targetPoint" />
          </mxGeometry>
        </mxCell>
        <mxCell id="7_4aUBkvJU-1F4oMu9qQ-48" value="&lt;font style=&quot;font-size: 20px;&quot;&gt;D6&lt;/font&gt;" style="edgeLabel;html=1;align=center;verticalAlign=middle;resizable=0;points=[];" parent="7_4aUBkvJU-1F4oMu9qQ-5" vertex="1" connectable="0">
          <mxGeometry x="-0.2982" relative="1" as="geometry">
            <mxPoint x="19" as="offset" />
          </mxGeometry>
        </mxCell>
        <mxCell id="7_4aUBkvJU-1F4oMu9qQ-6" value="" style="endArrow=classic;html=1;rounded=0;fontSize=12;startSize=8;endSize=8;curved=1;exitX=1;exitY=0.5;exitDx=0;exitDy=0;entryX=0.04;entryY=0.407;entryDx=0;entryDy=0;entryPerimeter=0;" parent="1" source="7_4aUBkvJU-1F4oMu9qQ-4" target="7_4aUBkvJU-1F4oMu9qQ-8" edge="1">
          <mxGeometry width="50" height="50" relative="1" as="geometry">
            <mxPoint x="998" y="1655" as="sourcePoint" />
            <mxPoint x="1207" y="1654" as="targetPoint" />
          </mxGeometry>
        </mxCell>
        <mxCell id="7_4aUBkvJU-1F4oMu9qQ-7" value="&lt;font style=&quot;font-size: 20px;&quot;&gt;N = 10&lt;/font&gt;" style="edgeLabel;html=1;align=center;verticalAlign=middle;resizable=0;points=[];fontSize=12;rotation=0;" parent="7_4aUBkvJU-1F4oMu9qQ-6" vertex="1" connectable="0">
          <mxGeometry x="0.2611" y="3" relative="1" as="geometry">
            <mxPoint x="-16" y="-15" as="offset" />
          </mxGeometry>
        </mxCell>
        <mxCell id="7_4aUBkvJU-1F4oMu9qQ-8" value="&lt;font style=&quot;font-size: 20px;&quot;&gt;17&lt;/font&gt;" style="ellipse;whiteSpace=wrap;html=1;aspect=fixed;" parent="1" vertex="1">
          <mxGeometry x="1558" y="1563" width="50" height="50" as="geometry" />
        </mxCell>
        <mxCell id="7_4aUBkvJU-1F4oMu9qQ-9" value="&lt;font style=&quot;font-size: 20px;&quot;&gt;13&lt;/font&gt;" style="ellipse;whiteSpace=wrap;html=1;aspect=fixed;" parent="1" vertex="1">
          <mxGeometry x="1355" y="1302" width="50" height="50" as="geometry" />
        </mxCell>
        <mxCell id="7_4aUBkvJU-1F4oMu9qQ-10" value="" style="html=1;labelBackgroundColor=#ffffff;startArrow=none;startFill=0;startSize=6;endArrow=classic;endFill=1;endSize=6;jettySize=auto;orthogonalLoop=1;strokeWidth=1;dashed=1;fontSize=14;rounded=0;exitX=1;exitY=1;exitDx=0;exitDy=0;" parent="1" source="BcuZdG-WMwdQdfmydHHf-33" target="7_4aUBkvJU-1F4oMu9qQ-9" edge="1">
          <mxGeometry width="60" height="60" relative="1" as="geometry">
            <mxPoint x="1365" y="1288" as="sourcePoint" />
            <mxPoint x="1335" y="1488" as="targetPoint" />
          </mxGeometry>
        </mxCell>
        <mxCell id="7_4aUBkvJU-1F4oMu9qQ-49" value="&lt;font style=&quot;font-size: 20px;&quot;&gt;D7&lt;/font&gt;" style="edgeLabel;html=1;align=center;verticalAlign=middle;resizable=0;points=[];" parent="7_4aUBkvJU-1F4oMu9qQ-10" vertex="1" connectable="0">
          <mxGeometry x="0.0874" y="1" relative="1" as="geometry">
            <mxPoint x="22" y="-7" as="offset" />
          </mxGeometry>
        </mxCell>
        <mxCell id="7_4aUBkvJU-1F4oMu9qQ-11" value="" style="html=1;labelBackgroundColor=#ffffff;startArrow=none;startFill=0;startSize=6;endArrow=classic;endFill=1;endSize=6;jettySize=auto;orthogonalLoop=1;strokeWidth=1;dashed=1;fontSize=14;rounded=0;exitX=1;exitY=0;exitDx=0;exitDy=0;entryX=0.003;entryY=0.72;entryDx=0;entryDy=0;entryPerimeter=0;" parent="1" source="BcuZdG-WMwdQdfmydHHf-63" target="7_4aUBkvJU-1F4oMu9qQ-9" edge="1">
          <mxGeometry width="60" height="60" relative="1" as="geometry">
            <mxPoint x="1285" y="1422" as="sourcePoint" />
            <mxPoint x="1461" y="1545" as="targetPoint" />
          </mxGeometry>
        </mxCell>
        <mxCell id="7_4aUBkvJU-1F4oMu9qQ-50" value="&lt;font style=&quot;font-size: 20px;&quot;&gt;D8&lt;/font&gt;" style="edgeLabel;html=1;align=center;verticalAlign=middle;resizable=0;points=[];" parent="7_4aUBkvJU-1F4oMu9qQ-11" vertex="1" connectable="0">
          <mxGeometry x="-0.1249" y="-4" relative="1" as="geometry">
            <mxPoint x="-11" y="-22" as="offset" />
          </mxGeometry>
        </mxCell>
        <mxCell id="7_4aUBkvJU-1F4oMu9qQ-12" value="" style="endArrow=classic;html=1;rounded=0;fontSize=12;startSize=8;endSize=8;curved=1;exitX=1;exitY=0.5;exitDx=0;exitDy=0;entryX=0.05;entryY=0.407;entryDx=0;entryDy=0;entryPerimeter=0;" parent="1" source="7_4aUBkvJU-1F4oMu9qQ-9" target="7_4aUBkvJU-1F4oMu9qQ-14" edge="1">
          <mxGeometry width="50" height="50" relative="1" as="geometry">
            <mxPoint x="1421" y="1338" as="sourcePoint" />
            <mxPoint x="1541" y="1331" as="targetPoint" />
          </mxGeometry>
        </mxCell>
        <mxCell id="7_4aUBkvJU-1F4oMu9qQ-13" value="&lt;font style=&quot;font-size: 20px;&quot;&gt;G = 5&lt;/font&gt;" style="edgeLabel;html=1;align=center;verticalAlign=middle;resizable=0;points=[];fontSize=12;rotation=0;" parent="7_4aUBkvJU-1F4oMu9qQ-12" vertex="1" connectable="0">
          <mxGeometry x="0.2611" y="3" relative="1" as="geometry">
            <mxPoint x="-17" y="-15" as="offset" />
          </mxGeometry>
        </mxCell>
        <mxCell id="7_4aUBkvJU-1F4oMu9qQ-14" value="&lt;font style=&quot;font-size: 20px;&quot;&gt;15&lt;/font&gt;" style="ellipse;whiteSpace=wrap;html=1;aspect=fixed;" parent="1" vertex="1">
          <mxGeometry x="1624" y="1308" width="50" height="50" as="geometry" />
        </mxCell>
        <mxCell id="7_4aUBkvJU-1F4oMu9qQ-15" value="" style="html=1;labelBackgroundColor=#ffffff;startArrow=none;startFill=0;startSize=6;endArrow=classic;endFill=1;endSize=6;jettySize=auto;orthogonalLoop=1;strokeWidth=1;dashed=1;fontSize=14;rounded=0;exitX=0.5;exitY=0;exitDx=0;exitDy=0;entryX=1;entryY=1;entryDx=0;entryDy=0;" parent="1" source="7_4aUBkvJU-1F4oMu9qQ-14" target="BcuZdG-WMwdQdfmydHHf-39" edge="1">
          <mxGeometry width="60" height="60" relative="1" as="geometry">
            <mxPoint x="1651" y="1280" as="sourcePoint" />
            <mxPoint x="1744" y="1196" as="targetPoint" />
          </mxGeometry>
        </mxCell>
        <mxCell id="7_4aUBkvJU-1F4oMu9qQ-51" value="&lt;font style=&quot;font-size: 20px;&quot;&gt;D9&lt;/font&gt;" style="edgeLabel;html=1;align=center;verticalAlign=middle;resizable=0;points=[];" parent="7_4aUBkvJU-1F4oMu9qQ-15" vertex="1" connectable="0">
          <mxGeometry x="-0.1794" relative="1" as="geometry">
            <mxPoint x="9" y="-17" as="offset" />
          </mxGeometry>
        </mxCell>
        <mxCell id="7_4aUBkvJU-1F4oMu9qQ-16" value="" style="endArrow=classic;html=1;rounded=0;fontSize=12;startSize=8;endSize=8;curved=1;exitX=1;exitY=0.5;exitDx=0;exitDy=0;entryX=0.023;entryY=0.592;entryDx=0;entryDy=0;entryPerimeter=0;" parent="1" source="BcuZdG-WMwdQdfmydHHf-39" target="7_4aUBkvJU-1F4oMu9qQ-18" edge="1">
          <mxGeometry width="50" height="50" relative="1" as="geometry">
            <mxPoint x="1535" y="1174" as="sourcePoint" />
            <mxPoint x="1693" y="1172" as="targetPoint" />
          </mxGeometry>
        </mxCell>
        <mxCell id="7_4aUBkvJU-1F4oMu9qQ-17" value="&lt;font style=&quot;font-size: 20px;&quot;&gt;O = 32&lt;/font&gt;" style="edgeLabel;html=1;align=center;verticalAlign=middle;resizable=0;points=[];fontSize=12;rotation=0;" parent="7_4aUBkvJU-1F4oMu9qQ-16" vertex="1" connectable="0">
          <mxGeometry x="0.2611" y="3" relative="1" as="geometry">
            <mxPoint x="-17" y="-15" as="offset" />
          </mxGeometry>
        </mxCell>
        <mxCell id="7_4aUBkvJU-1F4oMu9qQ-18" value="&lt;font style=&quot;font-size: 20px;&quot;&gt;20&lt;/font&gt;" style="ellipse;whiteSpace=wrap;html=1;aspect=fixed;" parent="1" vertex="1">
          <mxGeometry x="1699" y="1144" width="50" height="50" as="geometry" />
        </mxCell>
        <mxCell id="7_4aUBkvJU-1F4oMu9qQ-21" value="" style="endArrow=classic;html=1;rounded=0;fontSize=12;startSize=8;endSize=8;curved=1;exitX=1;exitY=0.5;exitDx=0;exitDy=0;entryX=0.04;entryY=0.407;entryDx=0;entryDy=0;entryPerimeter=0;" parent="1" source="BcuZdG-WMwdQdfmydHHf-63" target="7_4aUBkvJU-1F4oMu9qQ-23" edge="1">
          <mxGeometry width="50" height="50" relative="1" as="geometry">
            <mxPoint x="1333" y="1444" as="sourcePoint" />
            <mxPoint x="1452" y="1522" as="targetPoint" />
          </mxGeometry>
        </mxCell>
        <mxCell id="7_4aUBkvJU-1F4oMu9qQ-22" value="&lt;font style=&quot;font-size: 20px;&quot;&gt;P = 16&lt;/font&gt;" style="edgeLabel;html=1;align=center;verticalAlign=middle;resizable=0;points=[];fontSize=12;rotation=0;" parent="7_4aUBkvJU-1F4oMu9qQ-21" vertex="1" connectable="0">
          <mxGeometry x="0.2611" y="3" relative="1" as="geometry">
            <mxPoint x="-15" y="-15" as="offset" />
          </mxGeometry>
        </mxCell>
        <mxCell id="7_4aUBkvJU-1F4oMu9qQ-23" value="&lt;font style=&quot;font-size: 20px;&quot;&gt;18&lt;/font&gt;" style="ellipse;whiteSpace=wrap;html=1;aspect=fixed;" parent="1" vertex="1">
          <mxGeometry x="1535" y="1427" width="50" height="50" as="geometry" />
        </mxCell>
        <mxCell id="7_4aUBkvJU-1F4oMu9qQ-24" value="" style="endArrow=classic;html=1;rounded=0;fontSize=12;startSize=8;endSize=8;curved=1;exitX=1;exitY=0.5;exitDx=0;exitDy=0;entryX=0.1;entryY=0.68;entryDx=0;entryDy=0;entryPerimeter=0;" parent="1" source="7_4aUBkvJU-1F4oMu9qQ-8" target="7_4aUBkvJU-1F4oMu9qQ-43" edge="1">
          <mxGeometry width="50" height="50" relative="1" as="geometry">
            <mxPoint x="1345" y="1585" as="sourcePoint" />
            <mxPoint x="1542" y="1517.35" as="targetPoint" />
          </mxGeometry>
        </mxCell>
        <mxCell id="7_4aUBkvJU-1F4oMu9qQ-25" value="&lt;font style=&quot;font-size: 20px;&quot;&gt;&amp;nbsp;R = 13&lt;/font&gt;" style="edgeLabel;html=1;align=center;verticalAlign=middle;resizable=0;points=[];fontSize=12;rotation=0;" parent="7_4aUBkvJU-1F4oMu9qQ-24" vertex="1" connectable="0">
          <mxGeometry x="0.2611" y="3" relative="1" as="geometry">
            <mxPoint x="-18" y="-14" as="offset" />
          </mxGeometry>
        </mxCell>
        <mxCell id="7_4aUBkvJU-1F4oMu9qQ-27" value="" style="endArrow=classic;html=1;rounded=0;fontSize=12;startSize=8;endSize=8;curved=1;exitX=1;exitY=0.5;exitDx=0;exitDy=0;entryX=0.04;entryY=0.407;entryDx=0;entryDy=0;entryPerimeter=0;" parent="1" source="7_4aUBkvJU-1F4oMu9qQ-18" target="7_4aUBkvJU-1F4oMu9qQ-29" edge="1">
          <mxGeometry width="50" height="50" relative="1" as="geometry">
            <mxPoint x="1753" y="1169" as="sourcePoint" />
            <mxPoint x="1872" y="1247" as="targetPoint" />
          </mxGeometry>
        </mxCell>
        <mxCell id="7_4aUBkvJU-1F4oMu9qQ-28" value="&lt;font style=&quot;font-size: 20px;&quot;&gt;S = 12&lt;/font&gt;" style="edgeLabel;html=1;align=center;verticalAlign=middle;resizable=0;points=[];fontSize=12;rotation=0;" parent="7_4aUBkvJU-1F4oMu9qQ-27" vertex="1" connectable="0">
          <mxGeometry x="0.2611" y="3" relative="1" as="geometry">
            <mxPoint x="-17" y="-12" as="offset" />
          </mxGeometry>
        </mxCell>
        <mxCell id="7_4aUBkvJU-1F4oMu9qQ-29" value="&lt;font style=&quot;font-size: 20px;&quot;&gt;22&lt;/font&gt;" style="ellipse;whiteSpace=wrap;html=1;aspect=fixed;" parent="1" vertex="1">
          <mxGeometry x="1955" y="1152" width="50" height="50" as="geometry" />
        </mxCell>
        <mxCell id="7_4aUBkvJU-1F4oMu9qQ-30" value="" style="endArrow=classic;html=1;rounded=0;fontSize=12;startSize=8;endSize=8;curved=1;exitX=1;exitY=0.5;exitDx=0;exitDy=0;entryX=0.04;entryY=0.407;entryDx=0;entryDy=0;entryPerimeter=0;" parent="1" source="7_4aUBkvJU-1F4oMu9qQ-23" target="7_4aUBkvJU-1F4oMu9qQ-32" edge="1">
          <mxGeometry width="50" height="50" relative="1" as="geometry">
            <mxPoint x="1590" y="1452.1399999999999" as="sourcePoint" />
            <mxPoint x="1709" y="1530.1399999999999" as="targetPoint" />
          </mxGeometry>
        </mxCell>
        <mxCell id="7_4aUBkvJU-1F4oMu9qQ-31" value="&lt;font style=&quot;font-size: 20px;&quot;&gt;T = 20&lt;/font&gt;" style="edgeLabel;html=1;align=center;verticalAlign=middle;resizable=0;points=[];fontSize=12;rotation=0;" parent="7_4aUBkvJU-1F4oMu9qQ-30" vertex="1" connectable="0">
          <mxGeometry x="0.2611" y="3" relative="1" as="geometry">
            <mxPoint x="-56" y="-13" as="offset" />
          </mxGeometry>
        </mxCell>
        <mxCell id="7_4aUBkvJU-1F4oMu9qQ-32" value="&lt;font style=&quot;font-size: 20px;&quot;&gt;19&lt;/font&gt;" style="ellipse;whiteSpace=wrap;html=1;aspect=fixed;" parent="1" vertex="1">
          <mxGeometry x="2092" y="1429.9999999999998" width="50" height="50" as="geometry" />
        </mxCell>
        <mxCell id="7_4aUBkvJU-1F4oMu9qQ-33" value="" style="endArrow=classic;html=1;rounded=0;fontSize=12;startSize=8;endSize=8;curved=1;exitX=1;exitY=0.5;exitDx=0;exitDy=0;entryX=0.008;entryY=0.568;entryDx=0;entryDy=0;entryPerimeter=0;" parent="1" source="7_4aUBkvJU-1F4oMu9qQ-32" target="7_4aUBkvJU-1F4oMu9qQ-43" edge="1">
          <mxGeometry width="50" height="50" relative="1" as="geometry">
            <mxPoint x="1851.5" y="1462" as="sourcePoint" />
            <mxPoint x="2060.5" y="1465.4899999999998" as="targetPoint" />
          </mxGeometry>
        </mxCell>
        <mxCell id="7_4aUBkvJU-1F4oMu9qQ-34" value="&lt;font style=&quot;font-size: 20px;&quot;&gt;U = 10&lt;/font&gt;" style="edgeLabel;html=1;align=center;verticalAlign=middle;resizable=0;points=[];fontSize=12;rotation=15;" parent="7_4aUBkvJU-1F4oMu9qQ-33" vertex="1" connectable="0">
          <mxGeometry x="0.2611" y="3" relative="1" as="geometry">
            <mxPoint x="-32" y="-24" as="offset" />
          </mxGeometry>
        </mxCell>
        <mxCell id="7_4aUBkvJU-1F4oMu9qQ-36" value="" style="html=1;labelBackgroundColor=#ffffff;startArrow=none;startFill=0;startSize=6;endArrow=classic;endFill=1;endSize=6;jettySize=auto;orthogonalLoop=1;strokeWidth=1;dashed=1;fontSize=14;rounded=0;exitX=0.5;exitY=1;exitDx=0;exitDy=0;entryX=1;entryY=0;entryDx=0;entryDy=0;" parent="1" source="7_4aUBkvJU-1F4oMu9qQ-14" target="7_4aUBkvJU-1F4oMu9qQ-8" edge="1">
          <mxGeometry width="60" height="60" relative="1" as="geometry">
            <mxPoint x="1999" y="1387" as="sourcePoint" />
            <mxPoint x="1854" y="1270" as="targetPoint" />
          </mxGeometry>
        </mxCell>
        <mxCell id="7_4aUBkvJU-1F4oMu9qQ-52" value="&lt;font style=&quot;font-size: 20px;&quot;&gt;D10&lt;/font&gt;" style="edgeLabel;html=1;align=center;verticalAlign=middle;resizable=0;points=[];" parent="7_4aUBkvJU-1F4oMu9qQ-36" vertex="1" connectable="0">
          <mxGeometry x="-0.563" y="-1" relative="1" as="geometry">
            <mxPoint x="22" y="13" as="offset" />
          </mxGeometry>
        </mxCell>
        <mxCell id="7_4aUBkvJU-1F4oMu9qQ-37" value="" style="endArrow=classic;html=1;rounded=0;fontSize=12;startSize=8;endSize=8;curved=1;exitX=0.99;exitY=0.39;exitDx=0;exitDy=0;entryX=0.04;entryY=0.407;entryDx=0;entryDy=0;entryPerimeter=0;exitPerimeter=0;" parent="1" source="7_4aUBkvJU-1F4oMu9qQ-8" target="7_4aUBkvJU-1F4oMu9qQ-39" edge="1">
          <mxGeometry width="50" height="50" relative="1" as="geometry">
            <mxPoint x="1609" y="1591.86" as="sourcePoint" />
            <mxPoint x="1742.5" y="1671.9999999999998" as="targetPoint" />
          </mxGeometry>
        </mxCell>
        <mxCell id="7_4aUBkvJU-1F4oMu9qQ-38" value="&lt;font style=&quot;font-size: 20px;&quot;&gt;Q = 7&lt;/font&gt;" style="edgeLabel;html=1;align=center;verticalAlign=middle;resizable=0;points=[];fontSize=12;rotation=0;" parent="7_4aUBkvJU-1F4oMu9qQ-37" vertex="1" connectable="0">
          <mxGeometry x="0.2611" y="3" relative="1" as="geometry">
            <mxPoint x="-32" y="-9" as="offset" />
          </mxGeometry>
        </mxCell>
        <mxCell id="7_4aUBkvJU-1F4oMu9qQ-39" value="&lt;font style=&quot;font-size: 20px;&quot;&gt;21&lt;/font&gt;" style="ellipse;whiteSpace=wrap;html=1;aspect=fixed;" parent="1" vertex="1">
          <mxGeometry x="1876" y="1474.9999999999998" width="50" height="50" as="geometry" />
        </mxCell>
        <mxCell id="7_4aUBkvJU-1F4oMu9qQ-40" value="" style="html=1;labelBackgroundColor=#ffffff;startArrow=none;startFill=0;startSize=6;endArrow=classic;endFill=1;endSize=6;jettySize=auto;orthogonalLoop=1;strokeWidth=1;dashed=1;fontSize=14;rounded=0;exitX=0.654;exitY=0.073;exitDx=0;exitDy=0;entryX=0.317;entryY=1.036;entryDx=0;entryDy=0;exitPerimeter=0;entryPerimeter=0;" parent="1" source="7_4aUBkvJU-1F4oMu9qQ-39" target="7_4aUBkvJU-1F4oMu9qQ-29" edge="1">
          <mxGeometry width="60" height="60" relative="1" as="geometry">
            <mxPoint x="2038" y="1676" as="sourcePoint" />
            <mxPoint x="1893" y="1559" as="targetPoint" />
          </mxGeometry>
        </mxCell>
        <mxCell id="7_4aUBkvJU-1F4oMu9qQ-53" value="&lt;font style=&quot;font-size: 20px;&quot;&gt;D11&lt;/font&gt;" style="edgeLabel;html=1;align=center;verticalAlign=middle;resizable=0;points=[];" parent="7_4aUBkvJU-1F4oMu9qQ-40" vertex="1" connectable="0">
          <mxGeometry x="-0.0332" y="2" relative="1" as="geometry">
            <mxPoint x="24" y="2" as="offset" />
          </mxGeometry>
        </mxCell>
        <mxCell id="7_4aUBkvJU-1F4oMu9qQ-41" value="" style="endArrow=classic;html=1;rounded=0;fontSize=12;startSize=8;endSize=8;curved=1;exitX=1;exitY=0.5;exitDx=0;exitDy=0;entryX=0.04;entryY=0.407;entryDx=0;entryDy=0;entryPerimeter=0;" parent="1" source="7_4aUBkvJU-1F4oMu9qQ-29" target="7_4aUBkvJU-1F4oMu9qQ-43" edge="1">
          <mxGeometry width="50" height="50" relative="1" as="geometry">
            <mxPoint x="2015" y="1177" as="sourcePoint" />
            <mxPoint x="2138" y="1255" as="targetPoint" />
          </mxGeometry>
        </mxCell>
        <mxCell id="7_4aUBkvJU-1F4oMu9qQ-42" value="&lt;font style=&quot;font-size: 20px;&quot;&gt;V = 7&lt;/font&gt;" style="edgeLabel;html=1;align=center;verticalAlign=middle;resizable=0;points=[];fontSize=12;rotation=45;" parent="7_4aUBkvJU-1F4oMu9qQ-41" vertex="1" connectable="0">
          <mxGeometry x="0.2611" y="3" relative="1" as="geometry">
            <mxPoint x="7" y="-30" as="offset" />
          </mxGeometry>
        </mxCell>
        <mxCell id="7_4aUBkvJU-1F4oMu9qQ-43" value="&lt;font style=&quot;font-size: 20px;&quot;&gt;23&lt;/font&gt;" style="ellipse;whiteSpace=wrap;html=1;aspect=fixed;" parent="1" vertex="1">
          <mxGeometry x="2379" y="1477" width="50" height="50" as="geometry" />
        </mxCell>
        <mxCell id="dm9eH3l4-ublejLlUbJZ-1" value="" style="whiteSpace=wrap;html=1;aspect=fixed;strokeWidth=1;" parent="1" vertex="1">
          <mxGeometry x="2979" y="191" width="80" height="80" as="geometry" />
        </mxCell>
        <mxCell id="dm9eH3l4-ublejLlUbJZ-2" value="" style="line;strokeWidth=1;html=1;" parent="1" vertex="1">
          <mxGeometry x="2979" y="211" width="80" height="10" as="geometry" />
        </mxCell>
        <mxCell id="dm9eH3l4-ublejLlUbJZ-3" value="" style="line;strokeWidth=1;html=1;" parent="1" vertex="1">
          <mxGeometry x="2979" y="241" width="80" height="10" as="geometry" />
        </mxCell>
        <mxCell id="dm9eH3l4-ublejLlUbJZ-4" value="" style="line;strokeWidth=1;direction=south;html=1;" parent="1" vertex="1">
          <mxGeometry x="2990" y="191" width="20" height="25" as="geometry" />
        </mxCell>
        <mxCell id="dm9eH3l4-ublejLlUbJZ-5" value="" style="line;strokeWidth=1;direction=south;html=1;" parent="1" vertex="1">
          <mxGeometry x="2990" y="246" width="20" height="25" as="geometry" />
        </mxCell>
        <mxCell id="dm9eH3l4-ublejLlUbJZ-6" value="" style="line;strokeWidth=1;direction=south;html=1;" parent="1" vertex="1">
          <mxGeometry x="3029" y="191" width="20" height="25" as="geometry" />
        </mxCell>
        <mxCell id="dm9eH3l4-ublejLlUbJZ-7" value="" style="line;strokeWidth=1;direction=south;html=1;" parent="1" vertex="1">
          <mxGeometry x="3029" y="246" width="20" height="25" as="geometry" />
        </mxCell>
        <mxCell id="dm9eH3l4-ublejLlUbJZ-8" value="2" style="text;html=1;align=center;verticalAlign=middle;whiteSpace=wrap;rounded=0;" parent="1" vertex="1">
          <mxGeometry x="2999" y="227" width="40" height="19" as="geometry" />
        </mxCell>
        <mxCell id="dm9eH3l4-ublejLlUbJZ-9" value="0" style="text;html=1;align=center;verticalAlign=middle;whiteSpace=wrap;rounded=0;" parent="1" vertex="1">
          <mxGeometry x="2970" y="194" width="40" height="19" as="geometry" />
        </mxCell>
        <mxCell id="dm9eH3l4-ublejLlUbJZ-10" value="2" style="text;html=1;align=center;verticalAlign=middle;whiteSpace=wrap;rounded=0;" parent="1" vertex="1">
          <mxGeometry x="3029" y="194" width="40" height="19" as="geometry" />
        </mxCell>
        <mxCell id="dm9eH3l4-ublejLlUbJZ-11" value="0" style="text;html=1;align=center;verticalAlign=middle;whiteSpace=wrap;rounded=0;" parent="1" vertex="1">
          <mxGeometry x="2970" y="249" width="40" height="19" as="geometry" />
        </mxCell>
        <mxCell id="dm9eH3l4-ublejLlUbJZ-12" value="2" style="text;html=1;align=center;verticalAlign=middle;whiteSpace=wrap;rounded=0;" parent="1" vertex="1">
          <mxGeometry x="3029" y="249" width="40" height="19" as="geometry" />
        </mxCell>
        <mxCell id="dm9eH3l4-ublejLlUbJZ-13" value="A" style="text;html=1;align=center;verticalAlign=middle;whiteSpace=wrap;rounded=0;" parent="1" vertex="1">
          <mxGeometry x="2999" y="215" width="40" height="19" as="geometry" />
        </mxCell>
        <mxCell id="dm9eH3l4-ublejLlUbJZ-14" value="Slack = 0" style="text;html=1;align=center;verticalAlign=middle;whiteSpace=wrap;rounded=0;" parent="1" vertex="1">
          <mxGeometry x="2979" y="271" width="80" height="19" as="geometry" />
        </mxCell>
        <mxCell id="dm9eH3l4-ublejLlUbJZ-15" value="" style="whiteSpace=wrap;html=1;aspect=fixed;strokeWidth=1;" parent="1" vertex="1">
          <mxGeometry x="3159" y="191" width="80" height="80" as="geometry" />
        </mxCell>
        <mxCell id="dm9eH3l4-ublejLlUbJZ-16" value="" style="line;strokeWidth=1;html=1;" parent="1" vertex="1">
          <mxGeometry x="3159" y="211" width="80" height="10" as="geometry" />
        </mxCell>
        <mxCell id="dm9eH3l4-ublejLlUbJZ-17" value="" style="line;strokeWidth=1;html=1;" parent="1" vertex="1">
          <mxGeometry x="3159" y="241" width="80" height="10" as="geometry" />
        </mxCell>
        <mxCell id="dm9eH3l4-ublejLlUbJZ-18" value="" style="line;strokeWidth=1;direction=south;html=1;" parent="1" vertex="1">
          <mxGeometry x="3170" y="191" width="20" height="25" as="geometry" />
        </mxCell>
        <mxCell id="dm9eH3l4-ublejLlUbJZ-19" value="" style="line;strokeWidth=1;direction=south;html=1;" parent="1" vertex="1">
          <mxGeometry x="3170" y="246" width="20" height="25" as="geometry" />
        </mxCell>
        <mxCell id="dm9eH3l4-ublejLlUbJZ-20" value="" style="line;strokeWidth=1;direction=south;html=1;" parent="1" vertex="1">
          <mxGeometry x="3209" y="191" width="20" height="25" as="geometry" />
        </mxCell>
        <mxCell id="dm9eH3l4-ublejLlUbJZ-21" value="" style="line;strokeWidth=1;direction=south;html=1;" parent="1" vertex="1">
          <mxGeometry x="3209" y="246" width="20" height="25" as="geometry" />
        </mxCell>
        <mxCell id="dm9eH3l4-ublejLlUbJZ-22" value="4" style="text;html=1;align=center;verticalAlign=middle;whiteSpace=wrap;rounded=0;" parent="1" vertex="1">
          <mxGeometry x="3179" y="227" width="40" height="19" as="geometry" />
        </mxCell>
        <mxCell id="dm9eH3l4-ublejLlUbJZ-23" value="2" style="text;html=1;align=center;verticalAlign=middle;whiteSpace=wrap;rounded=0;" parent="1" vertex="1">
          <mxGeometry x="3150" y="194" width="40" height="19" as="geometry" />
        </mxCell>
        <mxCell id="dm9eH3l4-ublejLlUbJZ-24" value="6" style="text;html=1;align=center;verticalAlign=middle;whiteSpace=wrap;rounded=0;" parent="1" vertex="1">
          <mxGeometry x="3209" y="194" width="40" height="19" as="geometry" />
        </mxCell>
        <mxCell id="dm9eH3l4-ublejLlUbJZ-25" value="2" style="text;html=1;align=center;verticalAlign=middle;whiteSpace=wrap;rounded=0;" parent="1" vertex="1">
          <mxGeometry x="3150" y="249" width="40" height="19" as="geometry" />
        </mxCell>
        <mxCell id="dm9eH3l4-ublejLlUbJZ-26" value="6" style="text;html=1;align=center;verticalAlign=middle;whiteSpace=wrap;rounded=0;" parent="1" vertex="1">
          <mxGeometry x="3209" y="249" width="40" height="19" as="geometry" />
        </mxCell>
        <mxCell id="dm9eH3l4-ublejLlUbJZ-27" value="B" style="text;html=1;align=center;verticalAlign=middle;whiteSpace=wrap;rounded=0;" parent="1" vertex="1">
          <mxGeometry x="3179" y="215" width="40" height="19" as="geometry" />
        </mxCell>
        <mxCell id="dm9eH3l4-ublejLlUbJZ-28" value="Slack = 0" style="text;html=1;align=center;verticalAlign=middle;whiteSpace=wrap;rounded=0;" parent="1" vertex="1">
          <mxGeometry x="3159" y="271" width="80" height="19" as="geometry" />
        </mxCell>
        <mxCell id="dm9eH3l4-ublejLlUbJZ-29" value="" style="edgeStyle=elbowEdgeStyle;elbow=horizontal;endArrow=classic;html=1;curved=0;rounded=0;endSize=8;startSize=8;exitX=1;exitY=0.5;exitDx=0;exitDy=0;entryX=0;entryY=0.5;entryDx=0;entryDy=0;" parent="1" source="dm9eH3l4-ublejLlUbJZ-1" target="dm9eH3l4-ublejLlUbJZ-15" edge="1">
          <mxGeometry width="50" height="50" relative="1" as="geometry">
            <mxPoint x="3130" y="321" as="sourcePoint" />
            <mxPoint x="3180" y="271" as="targetPoint" />
          </mxGeometry>
        </mxCell>
        <mxCell id="dm9eH3l4-ublejLlUbJZ-30" value="" style="whiteSpace=wrap;html=1;aspect=fixed;strokeWidth=1;" parent="1" vertex="1">
          <mxGeometry x="3329" y="194" width="80" height="80" as="geometry" />
        </mxCell>
        <mxCell id="dm9eH3l4-ublejLlUbJZ-31" value="" style="line;strokeWidth=1;html=1;" parent="1" vertex="1">
          <mxGeometry x="3329" y="214" width="80" height="10" as="geometry" />
        </mxCell>
        <mxCell id="dm9eH3l4-ublejLlUbJZ-32" value="" style="line;strokeWidth=1;html=1;" parent="1" vertex="1">
          <mxGeometry x="3329" y="244" width="80" height="10" as="geometry" />
        </mxCell>
        <mxCell id="dm9eH3l4-ublejLlUbJZ-33" value="" style="line;strokeWidth=1;direction=south;html=1;" parent="1" vertex="1">
          <mxGeometry x="3340" y="194" width="20" height="25" as="geometry" />
        </mxCell>
        <mxCell id="dm9eH3l4-ublejLlUbJZ-34" value="" style="line;strokeWidth=1;direction=south;html=1;" parent="1" vertex="1">
          <mxGeometry x="3340" y="249" width="20" height="25" as="geometry" />
        </mxCell>
        <mxCell id="dm9eH3l4-ublejLlUbJZ-35" value="" style="line;strokeWidth=1;direction=south;html=1;" parent="1" vertex="1">
          <mxGeometry x="3379" y="194" width="20" height="25" as="geometry" />
        </mxCell>
        <mxCell id="dm9eH3l4-ublejLlUbJZ-36" value="" style="line;strokeWidth=1;direction=south;html=1;" parent="1" vertex="1">
          <mxGeometry x="3379" y="249" width="20" height="25" as="geometry" />
        </mxCell>
        <mxCell id="dm9eH3l4-ublejLlUbJZ-37" value="10" style="text;html=1;align=center;verticalAlign=middle;whiteSpace=wrap;rounded=0;" parent="1" vertex="1">
          <mxGeometry x="3349" y="230" width="40" height="19" as="geometry" />
        </mxCell>
        <mxCell id="dm9eH3l4-ublejLlUbJZ-38" value="6" style="text;html=1;align=center;verticalAlign=middle;whiteSpace=wrap;rounded=0;" parent="1" vertex="1">
          <mxGeometry x="3320" y="197" width="40" height="19" as="geometry" />
        </mxCell>
        <mxCell id="dm9eH3l4-ublejLlUbJZ-39" value="16" style="text;html=1;align=center;verticalAlign=middle;whiteSpace=wrap;rounded=0;" parent="1" vertex="1">
          <mxGeometry x="3379" y="197" width="40" height="19" as="geometry" />
        </mxCell>
        <mxCell id="dm9eH3l4-ublejLlUbJZ-40" value="6" style="text;html=1;align=center;verticalAlign=middle;whiteSpace=wrap;rounded=0;" parent="1" vertex="1">
          <mxGeometry x="3320" y="252" width="40" height="19" as="geometry" />
        </mxCell>
        <mxCell id="dm9eH3l4-ublejLlUbJZ-41" value="16" style="text;html=1;align=center;verticalAlign=middle;whiteSpace=wrap;rounded=0;" parent="1" vertex="1">
          <mxGeometry x="3379" y="252" width="40" height="19" as="geometry" />
        </mxCell>
        <mxCell id="dm9eH3l4-ublejLlUbJZ-42" value="C" style="text;html=1;align=center;verticalAlign=middle;whiteSpace=wrap;rounded=0;" parent="1" vertex="1">
          <mxGeometry x="3349" y="218" width="40" height="19" as="geometry" />
        </mxCell>
        <mxCell id="dm9eH3l4-ublejLlUbJZ-43" value="Slack = 0" style="text;html=1;align=center;verticalAlign=middle;whiteSpace=wrap;rounded=0;" parent="1" vertex="1">
          <mxGeometry x="3329" y="274" width="80" height="19" as="geometry" />
        </mxCell>
        <mxCell id="dm9eH3l4-ublejLlUbJZ-44" value="" style="edgeStyle=elbowEdgeStyle;elbow=horizontal;endArrow=classic;html=1;curved=0;rounded=0;endSize=8;startSize=8;exitX=0.985;exitY=0.539;exitDx=0;exitDy=0;exitPerimeter=0;entryX=0;entryY=0.5;entryDx=0;entryDy=0;" parent="1" source="dm9eH3l4-ublejLlUbJZ-15" target="dm9eH3l4-ublejLlUbJZ-30" edge="1">
          <mxGeometry width="50" height="50" relative="1" as="geometry">
            <mxPoint x="3270" y="321" as="sourcePoint" />
            <mxPoint x="3320" y="271" as="targetPoint" />
          </mxGeometry>
        </mxCell>
        <mxCell id="dm9eH3l4-ublejLlUbJZ-45" value="" style="whiteSpace=wrap;html=1;aspect=fixed;strokeWidth=1;" parent="1" vertex="1">
          <mxGeometry x="3488" y="10" width="80" height="80" as="geometry" />
        </mxCell>
        <mxCell id="dm9eH3l4-ublejLlUbJZ-46" value="" style="line;strokeWidth=1;html=1;" parent="1" vertex="1">
          <mxGeometry x="3488" y="30" width="80" height="10" as="geometry" />
        </mxCell>
        <mxCell id="dm9eH3l4-ublejLlUbJZ-47" value="" style="line;strokeWidth=1;html=1;" parent="1" vertex="1">
          <mxGeometry x="3488" y="60" width="80" height="10" as="geometry" />
        </mxCell>
        <mxCell id="dm9eH3l4-ublejLlUbJZ-48" value="" style="line;strokeWidth=1;direction=south;html=1;" parent="1" vertex="1">
          <mxGeometry x="3499" y="10" width="20" height="25" as="geometry" />
        </mxCell>
        <mxCell id="dm9eH3l4-ublejLlUbJZ-49" value="" style="line;strokeWidth=1;direction=south;html=1;" parent="1" vertex="1">
          <mxGeometry x="3499" y="65" width="20" height="25" as="geometry" />
        </mxCell>
        <mxCell id="dm9eH3l4-ublejLlUbJZ-50" value="" style="line;strokeWidth=1;direction=south;html=1;" parent="1" vertex="1">
          <mxGeometry x="3538" y="10" width="20" height="25" as="geometry" />
        </mxCell>
        <mxCell id="dm9eH3l4-ublejLlUbJZ-51" value="" style="line;strokeWidth=1;direction=south;html=1;" parent="1" vertex="1">
          <mxGeometry x="3538" y="65" width="20" height="25" as="geometry" />
        </mxCell>
        <mxCell id="dm9eH3l4-ublejLlUbJZ-52" value="6" style="text;html=1;align=center;verticalAlign=middle;whiteSpace=wrap;rounded=0;" parent="1" vertex="1">
          <mxGeometry x="3508" y="46" width="40" height="19" as="geometry" />
        </mxCell>
        <mxCell id="dm9eH3l4-ublejLlUbJZ-53" value="6" style="text;html=1;align=center;verticalAlign=middle;whiteSpace=wrap;rounded=0;" parent="1" vertex="1">
          <mxGeometry x="3479" y="13" width="40" height="19" as="geometry" />
        </mxCell>
        <mxCell id="dm9eH3l4-ublejLlUbJZ-54" value="12" style="text;html=1;align=center;verticalAlign=middle;whiteSpace=wrap;rounded=0;" parent="1" vertex="1">
          <mxGeometry x="3538" y="13" width="40" height="19" as="geometry" />
        </mxCell>
        <mxCell id="dm9eH3l4-ublejLlUbJZ-55" value="16" style="text;html=1;align=center;verticalAlign=middle;whiteSpace=wrap;rounded=0;" parent="1" vertex="1">
          <mxGeometry x="3479" y="68" width="40" height="19" as="geometry" />
        </mxCell>
        <mxCell id="dm9eH3l4-ublejLlUbJZ-56" value="22" style="text;html=1;align=center;verticalAlign=middle;whiteSpace=wrap;rounded=0;" parent="1" vertex="1">
          <mxGeometry x="3538" y="68" width="40" height="19" as="geometry" />
        </mxCell>
        <mxCell id="dm9eH3l4-ublejLlUbJZ-57" value="D" style="text;html=1;align=center;verticalAlign=middle;whiteSpace=wrap;rounded=0;" parent="1" vertex="1">
          <mxGeometry x="3508" y="34" width="40" height="19" as="geometry" />
        </mxCell>
        <mxCell id="dm9eH3l4-ublejLlUbJZ-58" value="Slack = 10" style="text;html=1;align=center;verticalAlign=middle;whiteSpace=wrap;rounded=0;" parent="1" vertex="1">
          <mxGeometry x="3488" y="90" width="80" height="19" as="geometry" />
        </mxCell>
        <mxCell id="dm9eH3l4-ublejLlUbJZ-59" value="" style="whiteSpace=wrap;html=1;aspect=fixed;strokeWidth=1;" parent="1" vertex="1">
          <mxGeometry x="3659" y="196.5" width="80" height="80" as="geometry" />
        </mxCell>
        <mxCell id="dm9eH3l4-ublejLlUbJZ-60" value="" style="line;strokeWidth=1;html=1;" parent="1" vertex="1">
          <mxGeometry x="3659" y="216.5" width="80" height="10" as="geometry" />
        </mxCell>
        <mxCell id="dm9eH3l4-ublejLlUbJZ-61" value="" style="line;strokeWidth=1;html=1;" parent="1" vertex="1">
          <mxGeometry x="3659" y="246.5" width="80" height="10" as="geometry" />
        </mxCell>
        <mxCell id="dm9eH3l4-ublejLlUbJZ-62" value="" style="line;strokeWidth=1;direction=south;html=1;" parent="1" vertex="1">
          <mxGeometry x="3670" y="196.5" width="20" height="25" as="geometry" />
        </mxCell>
        <mxCell id="dm9eH3l4-ublejLlUbJZ-63" value="" style="line;strokeWidth=1;direction=south;html=1;" parent="1" vertex="1">
          <mxGeometry x="3670" y="251.5" width="20" height="25" as="geometry" />
        </mxCell>
        <mxCell id="dm9eH3l4-ublejLlUbJZ-64" value="" style="line;strokeWidth=1;direction=south;html=1;" parent="1" vertex="1">
          <mxGeometry x="3709" y="196.5" width="20" height="25" as="geometry" />
        </mxCell>
        <mxCell id="dm9eH3l4-ublejLlUbJZ-65" value="" style="line;strokeWidth=1;direction=south;html=1;" parent="1" vertex="1">
          <mxGeometry x="3709" y="251.5" width="20" height="25" as="geometry" />
        </mxCell>
        <mxCell id="dm9eH3l4-ublejLlUbJZ-66" value="8" style="text;html=1;align=center;verticalAlign=middle;whiteSpace=wrap;rounded=0;" parent="1" vertex="1">
          <mxGeometry x="3679" y="232.5" width="40" height="19" as="geometry" />
        </mxCell>
        <mxCell id="dm9eH3l4-ublejLlUbJZ-67" value="22" style="text;html=1;align=center;verticalAlign=middle;whiteSpace=wrap;rounded=0;" parent="1" vertex="1">
          <mxGeometry x="3650" y="199.5" width="40" height="19" as="geometry" />
        </mxCell>
        <mxCell id="dm9eH3l4-ublejLlUbJZ-68" value="30" style="text;html=1;align=center;verticalAlign=middle;whiteSpace=wrap;rounded=0;" parent="1" vertex="1">
          <mxGeometry x="3709" y="199.5" width="40" height="19" as="geometry" />
        </mxCell>
        <mxCell id="dm9eH3l4-ublejLlUbJZ-69" value="22" style="text;html=1;align=center;verticalAlign=middle;whiteSpace=wrap;rounded=0;" parent="1" vertex="1">
          <mxGeometry x="3650" y="254.5" width="40" height="19" as="geometry" />
        </mxCell>
        <mxCell id="dm9eH3l4-ublejLlUbJZ-70" value="30" style="text;html=1;align=center;verticalAlign=middle;whiteSpace=wrap;rounded=0;" parent="1" vertex="1">
          <mxGeometry x="3709" y="254.5" width="40" height="19" as="geometry" />
        </mxCell>
        <mxCell id="dm9eH3l4-ublejLlUbJZ-71" value="E" style="text;html=1;align=center;verticalAlign=middle;whiteSpace=wrap;rounded=0;" parent="1" vertex="1">
          <mxGeometry x="3679" y="220.5" width="40" height="19" as="geometry" />
        </mxCell>
        <mxCell id="dm9eH3l4-ublejLlUbJZ-72" value="Slack = 0" style="text;html=1;align=center;verticalAlign=middle;whiteSpace=wrap;rounded=0;" parent="1" vertex="1">
          <mxGeometry x="3659" y="276.5" width="80" height="19" as="geometry" />
        </mxCell>
        <mxCell id="dm9eH3l4-ublejLlUbJZ-73" value="" style="edgeStyle=elbowEdgeStyle;elbow=horizontal;endArrow=classic;html=1;curved=0;rounded=0;endSize=8;startSize=8;exitX=1;exitY=0.5;exitDx=0;exitDy=0;entryX=0.016;entryY=0.446;entryDx=0;entryDy=0;entryPerimeter=0;" parent="1" source="dm9eH3l4-ublejLlUbJZ-45" target="dm9eH3l4-ublejLlUbJZ-59" edge="1">
          <mxGeometry width="50" height="50" relative="1" as="geometry">
            <mxPoint x="3640" y="291" as="sourcePoint" />
            <mxPoint x="3690" y="241" as="targetPoint" />
          </mxGeometry>
        </mxCell>
        <mxCell id="dm9eH3l4-ublejLlUbJZ-74" value="" style="whiteSpace=wrap;html=1;aspect=fixed;strokeWidth=1;" parent="1" vertex="1">
          <mxGeometry x="3498.5" y="321" width="80" height="80" as="geometry" />
        </mxCell>
        <mxCell id="dm9eH3l4-ublejLlUbJZ-75" value="" style="line;strokeWidth=1;html=1;" parent="1" vertex="1">
          <mxGeometry x="3498.5" y="341" width="80" height="10" as="geometry" />
        </mxCell>
        <mxCell id="dm9eH3l4-ublejLlUbJZ-76" value="" style="line;strokeWidth=1;html=1;" parent="1" vertex="1">
          <mxGeometry x="3498.5" y="371" width="80" height="10" as="geometry" />
        </mxCell>
        <mxCell id="dm9eH3l4-ublejLlUbJZ-77" value="" style="line;strokeWidth=1;direction=south;html=1;" parent="1" vertex="1">
          <mxGeometry x="3509.5" y="321" width="20" height="25" as="geometry" />
        </mxCell>
        <mxCell id="dm9eH3l4-ublejLlUbJZ-78" value="" style="line;strokeWidth=1;direction=south;html=1;" parent="1" vertex="1">
          <mxGeometry x="3509.5" y="376" width="20" height="25" as="geometry" />
        </mxCell>
        <mxCell id="dm9eH3l4-ublejLlUbJZ-79" value="" style="line;strokeWidth=1;direction=south;html=1;" parent="1" vertex="1">
          <mxGeometry x="3548.5" y="321" width="20" height="25" as="geometry" />
        </mxCell>
        <mxCell id="dm9eH3l4-ublejLlUbJZ-80" value="" style="line;strokeWidth=1;direction=south;html=1;" parent="1" vertex="1">
          <mxGeometry x="3548.5" y="376" width="20" height="25" as="geometry" />
        </mxCell>
        <mxCell id="dm9eH3l4-ublejLlUbJZ-81" value="6" style="text;html=1;align=center;verticalAlign=middle;whiteSpace=wrap;rounded=0;" parent="1" vertex="1">
          <mxGeometry x="3518.5" y="357" width="40" height="19" as="geometry" />
        </mxCell>
        <mxCell id="dm9eH3l4-ublejLlUbJZ-82" value="16" style="text;html=1;align=center;verticalAlign=middle;whiteSpace=wrap;rounded=0;" parent="1" vertex="1">
          <mxGeometry x="3489.5" y="324" width="40" height="19" as="geometry" />
        </mxCell>
        <mxCell id="dm9eH3l4-ublejLlUbJZ-83" value="22" style="text;html=1;align=center;verticalAlign=middle;whiteSpace=wrap;rounded=0;" parent="1" vertex="1">
          <mxGeometry x="3548.5" y="324" width="40" height="19" as="geometry" />
        </mxCell>
        <mxCell id="dm9eH3l4-ublejLlUbJZ-84" value="16" style="text;html=1;align=center;verticalAlign=middle;whiteSpace=wrap;rounded=0;" parent="1" vertex="1">
          <mxGeometry x="3489.5" y="379" width="40" height="19" as="geometry" />
        </mxCell>
        <mxCell id="dm9eH3l4-ublejLlUbJZ-85" value="22" style="text;html=1;align=center;verticalAlign=middle;whiteSpace=wrap;rounded=0;" parent="1" vertex="1">
          <mxGeometry x="3548.5" y="379" width="40" height="19" as="geometry" />
        </mxCell>
        <mxCell id="dm9eH3l4-ublejLlUbJZ-86" value="F" style="text;html=1;align=center;verticalAlign=middle;whiteSpace=wrap;rounded=0;" parent="1" vertex="1">
          <mxGeometry x="3518.5" y="345" width="40" height="19" as="geometry" />
        </mxCell>
        <mxCell id="dm9eH3l4-ublejLlUbJZ-87" value="Slack = 0" style="text;html=1;align=center;verticalAlign=middle;whiteSpace=wrap;rounded=0;" parent="1" vertex="1">
          <mxGeometry x="3498.5" y="401" width="80" height="19" as="geometry" />
        </mxCell>
        <mxCell id="dm9eH3l4-ublejLlUbJZ-88" value="" style="endArrow=classic;html=1;rounded=0;exitX=0.998;exitY=0.584;exitDx=0;exitDy=0;exitPerimeter=0;entryX=-0.013;entryY=0.363;entryDx=0;entryDy=0;entryPerimeter=0;" parent="1" source="dm9eH3l4-ublejLlUbJZ-30" target="dm9eH3l4-ublejLlUbJZ-74" edge="1">
          <mxGeometry width="50" height="50" relative="1" as="geometry">
            <mxPoint x="3480" y="291" as="sourcePoint" />
            <mxPoint x="3530" y="241" as="targetPoint" />
          </mxGeometry>
        </mxCell>
        <mxCell id="dm9eH3l4-ublejLlUbJZ-89" value="" style="endArrow=classic;html=1;rounded=0;entryX=0.016;entryY=0.696;entryDx=0;entryDy=0;entryPerimeter=0;exitX=1;exitY=0.5;exitDx=0;exitDy=0;" parent="1" source="dm9eH3l4-ublejLlUbJZ-74" target="dm9eH3l4-ublejLlUbJZ-59" edge="1">
          <mxGeometry width="50" height="50" relative="1" as="geometry">
            <mxPoint x="3580" y="361" as="sourcePoint" />
            <mxPoint x="3630" y="311" as="targetPoint" />
          </mxGeometry>
        </mxCell>
        <mxCell id="dm9eH3l4-ublejLlUbJZ-90" value="" style="whiteSpace=wrap;html=1;aspect=fixed;strokeWidth=1;" parent="1" vertex="1">
          <mxGeometry x="3658.5" y="441" width="80" height="80" as="geometry" />
        </mxCell>
        <mxCell id="dm9eH3l4-ublejLlUbJZ-91" value="" style="line;strokeWidth=1;html=1;" parent="1" vertex="1">
          <mxGeometry x="3658.5" y="461" width="80" height="10" as="geometry" />
        </mxCell>
        <mxCell id="dm9eH3l4-ublejLlUbJZ-92" value="" style="line;strokeWidth=1;html=1;" parent="1" vertex="1">
          <mxGeometry x="3658.5" y="491" width="80" height="10" as="geometry" />
        </mxCell>
        <mxCell id="dm9eH3l4-ublejLlUbJZ-93" value="" style="line;strokeWidth=1;direction=south;html=1;" parent="1" vertex="1">
          <mxGeometry x="3669.5" y="441" width="20" height="25" as="geometry" />
        </mxCell>
        <mxCell id="dm9eH3l4-ublejLlUbJZ-94" value="" style="line;strokeWidth=1;direction=south;html=1;" parent="1" vertex="1">
          <mxGeometry x="3669.5" y="496" width="20" height="25" as="geometry" />
        </mxCell>
        <mxCell id="dm9eH3l4-ublejLlUbJZ-95" value="" style="line;strokeWidth=1;direction=south;html=1;" parent="1" vertex="1">
          <mxGeometry x="3708.5" y="441" width="20" height="25" as="geometry" />
        </mxCell>
        <mxCell id="dm9eH3l4-ublejLlUbJZ-96" value="" style="line;strokeWidth=1;direction=south;html=1;" parent="1" vertex="1">
          <mxGeometry x="3708.5" y="496" width="20" height="25" as="geometry" />
        </mxCell>
        <mxCell id="dm9eH3l4-ublejLlUbJZ-97" value="5" style="text;html=1;align=center;verticalAlign=middle;whiteSpace=wrap;rounded=0;" parent="1" vertex="1">
          <mxGeometry x="3678.5" y="477" width="40" height="19" as="geometry" />
        </mxCell>
        <mxCell id="dm9eH3l4-ublejLlUbJZ-98" value="23" style="text;html=1;align=center;verticalAlign=middle;whiteSpace=wrap;rounded=0;" parent="1" vertex="1">
          <mxGeometry x="3649.5" y="444" width="40" height="19" as="geometry" />
        </mxCell>
        <mxCell id="dm9eH3l4-ublejLlUbJZ-99" value="28" style="text;html=1;align=center;verticalAlign=middle;whiteSpace=wrap;rounded=0;" parent="1" vertex="1">
          <mxGeometry x="3708.5" y="444" width="40" height="19" as="geometry" />
        </mxCell>
        <mxCell id="dm9eH3l4-ublejLlUbJZ-100" value="25" style="text;html=1;align=center;verticalAlign=middle;whiteSpace=wrap;rounded=0;" parent="1" vertex="1">
          <mxGeometry x="3649.5" y="499" width="40" height="19" as="geometry" />
        </mxCell>
        <mxCell id="dm9eH3l4-ublejLlUbJZ-101" value="30" style="text;html=1;align=center;verticalAlign=middle;whiteSpace=wrap;rounded=0;" parent="1" vertex="1">
          <mxGeometry x="3708.5" y="499" width="40" height="19" as="geometry" />
        </mxCell>
        <mxCell id="dm9eH3l4-ublejLlUbJZ-102" value="G" style="text;html=1;align=center;verticalAlign=middle;whiteSpace=wrap;rounded=0;" parent="1" vertex="1">
          <mxGeometry x="3678.5" y="465" width="40" height="19" as="geometry" />
        </mxCell>
        <mxCell id="dm9eH3l4-ublejLlUbJZ-103" value="Slack = 2" style="text;html=1;align=center;verticalAlign=middle;whiteSpace=wrap;rounded=0;" parent="1" vertex="1">
          <mxGeometry x="3658.5" y="521" width="80" height="19" as="geometry" />
        </mxCell>
        <mxCell id="dm9eH3l4-ublejLlUbJZ-104" value="" style="endArrow=classic;html=1;rounded=0;entryX=0;entryY=0.5;entryDx=0;entryDy=0;" parent="1" target="dm9eH3l4-ublejLlUbJZ-90" edge="1">
          <mxGeometry width="50" height="50" relative="1" as="geometry">
            <mxPoint x="3580" y="371" as="sourcePoint" />
            <mxPoint x="3650" y="301" as="targetPoint" />
          </mxGeometry>
        </mxCell>
        <mxCell id="dm9eH3l4-ublejLlUbJZ-105" value="SS3" style="edgeLabel;html=1;align=center;verticalAlign=middle;resizable=0;points=[];" parent="dm9eH3l4-ublejLlUbJZ-104" vertex="1" connectable="0">
          <mxGeometry x="0.1807" y="2" relative="1" as="geometry">
            <mxPoint as="offset" />
          </mxGeometry>
        </mxCell>
        <mxCell id="dm9eH3l4-ublejLlUbJZ-106" value="" style="whiteSpace=wrap;html=1;aspect=fixed;strokeWidth=1;" parent="1" vertex="1">
          <mxGeometry x="2799" y="302" width="80" height="80" as="geometry" />
        </mxCell>
        <mxCell id="dm9eH3l4-ublejLlUbJZ-107" value="" style="line;strokeWidth=1;html=1;" parent="1" vertex="1">
          <mxGeometry x="2799" y="322" width="80" height="10" as="geometry" />
        </mxCell>
        <mxCell id="dm9eH3l4-ublejLlUbJZ-108" value="" style="line;strokeWidth=1;html=1;" parent="1" vertex="1">
          <mxGeometry x="2799" y="352" width="80" height="10" as="geometry" />
        </mxCell>
        <mxCell id="dm9eH3l4-ublejLlUbJZ-109" value="" style="line;strokeWidth=1;direction=south;html=1;" parent="1" vertex="1">
          <mxGeometry x="2810" y="302" width="20" height="25" as="geometry" />
        </mxCell>
        <mxCell id="dm9eH3l4-ublejLlUbJZ-110" value="" style="line;strokeWidth=1;direction=south;html=1;" parent="1" vertex="1">
          <mxGeometry x="2810" y="357" width="20" height="25" as="geometry" />
        </mxCell>
        <mxCell id="dm9eH3l4-ublejLlUbJZ-111" value="" style="line;strokeWidth=1;direction=south;html=1;" parent="1" vertex="1">
          <mxGeometry x="2849" y="302" width="20" height="25" as="geometry" />
        </mxCell>
        <mxCell id="dm9eH3l4-ublejLlUbJZ-112" value="" style="line;strokeWidth=1;direction=south;html=1;" parent="1" vertex="1">
          <mxGeometry x="2849" y="357" width="20" height="25" as="geometry" />
        </mxCell>
        <mxCell id="dm9eH3l4-ublejLlUbJZ-113" value="0" style="text;html=1;align=center;verticalAlign=middle;whiteSpace=wrap;rounded=0;" parent="1" vertex="1">
          <mxGeometry x="2819" y="338" width="40" height="19" as="geometry" />
        </mxCell>
        <mxCell id="dm9eH3l4-ublejLlUbJZ-114" value="0" style="text;html=1;align=center;verticalAlign=middle;whiteSpace=wrap;rounded=0;" parent="1" vertex="1">
          <mxGeometry x="2790" y="305" width="40" height="19" as="geometry" />
        </mxCell>
        <mxCell id="dm9eH3l4-ublejLlUbJZ-115" value="0" style="text;html=1;align=center;verticalAlign=middle;whiteSpace=wrap;rounded=0;" parent="1" vertex="1">
          <mxGeometry x="2849" y="305" width="40" height="19" as="geometry" />
        </mxCell>
        <mxCell id="dm9eH3l4-ublejLlUbJZ-116" value="0" style="text;html=1;align=center;verticalAlign=middle;whiteSpace=wrap;rounded=0;" parent="1" vertex="1">
          <mxGeometry x="2790" y="360" width="40" height="19" as="geometry" />
        </mxCell>
        <mxCell id="dm9eH3l4-ublejLlUbJZ-117" value="0" style="text;html=1;align=center;verticalAlign=middle;whiteSpace=wrap;rounded=0;" parent="1" vertex="1">
          <mxGeometry x="2849" y="360" width="40" height="19" as="geometry" />
        </mxCell>
        <mxCell id="dm9eH3l4-ublejLlUbJZ-118" value="Start" style="text;html=1;align=center;verticalAlign=middle;whiteSpace=wrap;rounded=0;" parent="1" vertex="1">
          <mxGeometry x="2819" y="326" width="40" height="19" as="geometry" />
        </mxCell>
        <mxCell id="dm9eH3l4-ublejLlUbJZ-119" value="Slack = 0" style="text;html=1;align=center;verticalAlign=middle;whiteSpace=wrap;rounded=0;" parent="1" vertex="1">
          <mxGeometry x="2799" y="382" width="80" height="19" as="geometry" />
        </mxCell>
        <mxCell id="dm9eH3l4-ublejLlUbJZ-120" value="" style="whiteSpace=wrap;html=1;aspect=fixed;strokeWidth=1;" parent="1" vertex="1">
          <mxGeometry x="2959" y="381" width="80" height="80" as="geometry" />
        </mxCell>
        <mxCell id="dm9eH3l4-ublejLlUbJZ-121" value="" style="line;strokeWidth=1;html=1;" parent="1" vertex="1">
          <mxGeometry x="2959" y="401" width="80" height="10" as="geometry" />
        </mxCell>
        <mxCell id="dm9eH3l4-ublejLlUbJZ-122" value="" style="line;strokeWidth=1;html=1;" parent="1" vertex="1">
          <mxGeometry x="2959" y="431" width="80" height="10" as="geometry" />
        </mxCell>
        <mxCell id="dm9eH3l4-ublejLlUbJZ-123" value="" style="line;strokeWidth=1;direction=south;html=1;" parent="1" vertex="1">
          <mxGeometry x="2970" y="381" width="20" height="25" as="geometry" />
        </mxCell>
        <mxCell id="dm9eH3l4-ublejLlUbJZ-124" value="" style="line;strokeWidth=1;direction=south;html=1;" parent="1" vertex="1">
          <mxGeometry x="2970" y="436" width="20" height="25" as="geometry" />
        </mxCell>
        <mxCell id="dm9eH3l4-ublejLlUbJZ-125" value="" style="line;strokeWidth=1;direction=south;html=1;" parent="1" vertex="1">
          <mxGeometry x="3009" y="381" width="20" height="25" as="geometry" />
        </mxCell>
        <mxCell id="dm9eH3l4-ublejLlUbJZ-126" value="" style="line;strokeWidth=1;direction=south;html=1;" parent="1" vertex="1">
          <mxGeometry x="3009" y="436" width="20" height="25" as="geometry" />
        </mxCell>
        <mxCell id="dm9eH3l4-ublejLlUbJZ-127" value="5" style="text;html=1;align=center;verticalAlign=middle;whiteSpace=wrap;rounded=0;" parent="1" vertex="1">
          <mxGeometry x="2979" y="417" width="40" height="19" as="geometry" />
        </mxCell>
        <mxCell id="dm9eH3l4-ublejLlUbJZ-128" value="0" style="text;html=1;align=center;verticalAlign=middle;whiteSpace=wrap;rounded=0;" parent="1" vertex="1">
          <mxGeometry x="2950" y="384" width="40" height="19" as="geometry" />
        </mxCell>
        <mxCell id="dm9eH3l4-ublejLlUbJZ-129" value="5" style="text;html=1;align=center;verticalAlign=middle;whiteSpace=wrap;rounded=0;" parent="1" vertex="1">
          <mxGeometry x="3009" y="384" width="40" height="19" as="geometry" />
        </mxCell>
        <mxCell id="dm9eH3l4-ublejLlUbJZ-130" value="2" style="text;html=1;align=center;verticalAlign=middle;whiteSpace=wrap;rounded=0;" parent="1" vertex="1">
          <mxGeometry x="2950" y="439" width="40" height="19" as="geometry" />
        </mxCell>
        <mxCell id="dm9eH3l4-ublejLlUbJZ-131" value="7" style="text;html=1;align=center;verticalAlign=middle;whiteSpace=wrap;rounded=0;" parent="1" vertex="1">
          <mxGeometry x="3009" y="439" width="40" height="19" as="geometry" />
        </mxCell>
        <mxCell id="dm9eH3l4-ublejLlUbJZ-132" value="H" style="text;html=1;align=center;verticalAlign=middle;whiteSpace=wrap;rounded=0;" parent="1" vertex="1">
          <mxGeometry x="2979" y="405" width="40" height="19" as="geometry" />
        </mxCell>
        <mxCell id="dm9eH3l4-ublejLlUbJZ-133" value="Slack = 2" style="text;html=1;align=center;verticalAlign=middle;whiteSpace=wrap;rounded=0;" parent="1" vertex="1">
          <mxGeometry x="2959" y="461" width="80" height="19" as="geometry" />
        </mxCell>
        <mxCell id="dm9eH3l4-ublejLlUbJZ-134" value="" style="endArrow=classic;html=1;rounded=0;entryX=0;entryY=0.5;entryDx=0;entryDy=0;" parent="1" target="dm9eH3l4-ublejLlUbJZ-1" edge="1">
          <mxGeometry width="50" height="50" relative="1" as="geometry">
            <mxPoint x="2880" y="351" as="sourcePoint" />
            <mxPoint x="2930" y="301" as="targetPoint" />
          </mxGeometry>
        </mxCell>
        <mxCell id="dm9eH3l4-ublejLlUbJZ-135" value="" style="endArrow=classic;html=1;rounded=0;entryX=0;entryY=0.5;entryDx=0;entryDy=0;" parent="1" target="dm9eH3l4-ublejLlUbJZ-120" edge="1">
          <mxGeometry width="50" height="50" relative="1" as="geometry">
            <mxPoint x="2880" y="351" as="sourcePoint" />
            <mxPoint x="2920" y="411" as="targetPoint" />
          </mxGeometry>
        </mxCell>
        <mxCell id="dm9eH3l4-ublejLlUbJZ-136" value="" style="whiteSpace=wrap;html=1;aspect=fixed;strokeWidth=1;" parent="1" vertex="1">
          <mxGeometry x="3159" y="466" width="80" height="80" as="geometry" />
        </mxCell>
        <mxCell id="dm9eH3l4-ublejLlUbJZ-137" value="" style="line;strokeWidth=1;html=1;" parent="1" vertex="1">
          <mxGeometry x="3159" y="486" width="80" height="10" as="geometry" />
        </mxCell>
        <mxCell id="dm9eH3l4-ublejLlUbJZ-138" value="" style="line;strokeWidth=1;html=1;" parent="1" vertex="1">
          <mxGeometry x="3159" y="516" width="80" height="10" as="geometry" />
        </mxCell>
        <mxCell id="dm9eH3l4-ublejLlUbJZ-139" value="" style="line;strokeWidth=1;direction=south;html=1;" parent="1" vertex="1">
          <mxGeometry x="3170" y="466" width="20" height="25" as="geometry" />
        </mxCell>
        <mxCell id="dm9eH3l4-ublejLlUbJZ-140" value="" style="line;strokeWidth=1;direction=south;html=1;" parent="1" vertex="1">
          <mxGeometry x="3170" y="521" width="20" height="25" as="geometry" />
        </mxCell>
        <mxCell id="dm9eH3l4-ublejLlUbJZ-141" value="" style="line;strokeWidth=1;direction=south;html=1;" parent="1" vertex="1">
          <mxGeometry x="3209" y="466" width="20" height="25" as="geometry" />
        </mxCell>
        <mxCell id="dm9eH3l4-ublejLlUbJZ-142" value="" style="line;strokeWidth=1;direction=south;html=1;" parent="1" vertex="1">
          <mxGeometry x="3209" y="521" width="20" height="25" as="geometry" />
        </mxCell>
        <mxCell id="dm9eH3l4-ublejLlUbJZ-143" value="12" style="text;html=1;align=center;verticalAlign=middle;whiteSpace=wrap;rounded=0;" parent="1" vertex="1">
          <mxGeometry x="3179" y="502" width="40" height="19" as="geometry" />
        </mxCell>
        <mxCell id="dm9eH3l4-ublejLlUbJZ-144" value="5" style="text;html=1;align=center;verticalAlign=middle;whiteSpace=wrap;rounded=0;" parent="1" vertex="1">
          <mxGeometry x="3150" y="469" width="40" height="19" as="geometry" />
        </mxCell>
        <mxCell id="dm9eH3l4-ublejLlUbJZ-145" value="17" style="text;html=1;align=center;verticalAlign=middle;whiteSpace=wrap;rounded=0;" parent="1" vertex="1">
          <mxGeometry x="3209" y="469" width="40" height="19" as="geometry" />
        </mxCell>
        <mxCell id="dm9eH3l4-ublejLlUbJZ-146" value="7" style="text;html=1;align=center;verticalAlign=middle;whiteSpace=wrap;rounded=0;" parent="1" vertex="1">
          <mxGeometry x="3150" y="524" width="40" height="19" as="geometry" />
        </mxCell>
        <mxCell id="dm9eH3l4-ublejLlUbJZ-147" value="19" style="text;html=1;align=center;verticalAlign=middle;whiteSpace=wrap;rounded=0;" parent="1" vertex="1">
          <mxGeometry x="3209" y="524" width="40" height="19" as="geometry" />
        </mxCell>
        <mxCell id="dm9eH3l4-ublejLlUbJZ-148" value="I" style="text;html=1;align=center;verticalAlign=middle;whiteSpace=wrap;rounded=0;" parent="1" vertex="1">
          <mxGeometry x="3179" y="490" width="40" height="19" as="geometry" />
        </mxCell>
        <mxCell id="dm9eH3l4-ublejLlUbJZ-149" value="Slack = 2" style="text;html=1;align=center;verticalAlign=middle;whiteSpace=wrap;rounded=0;" parent="1" vertex="1">
          <mxGeometry x="3159" y="546" width="80" height="19" as="geometry" />
        </mxCell>
        <mxCell id="dm9eH3l4-ublejLlUbJZ-150" value="" style="endArrow=classic;html=1;rounded=0;exitX=1;exitY=0.5;exitDx=0;exitDy=0;" parent="1" source="dm9eH3l4-ublejLlUbJZ-120" target="dm9eH3l4-ublejLlUbJZ-136" edge="1">
          <mxGeometry width="50" height="50" relative="1" as="geometry">
            <mxPoint x="3030" y="451" as="sourcePoint" />
            <mxPoint x="3080" y="401" as="targetPoint" />
          </mxGeometry>
        </mxCell>
        <mxCell id="dm9eH3l4-ublejLlUbJZ-151" value="" style="whiteSpace=wrap;html=1;aspect=fixed;strokeWidth=1;" parent="1" vertex="1">
          <mxGeometry x="3358" y="466.5" width="80" height="80" as="geometry" />
        </mxCell>
        <mxCell id="dm9eH3l4-ublejLlUbJZ-152" value="" style="line;strokeWidth=1;html=1;" parent="1" vertex="1">
          <mxGeometry x="3358" y="486.5" width="80" height="10" as="geometry" />
        </mxCell>
        <mxCell id="dm9eH3l4-ublejLlUbJZ-153" value="" style="line;strokeWidth=1;html=1;" parent="1" vertex="1">
          <mxGeometry x="3358" y="516.5" width="80" height="10" as="geometry" />
        </mxCell>
        <mxCell id="dm9eH3l4-ublejLlUbJZ-154" value="" style="line;strokeWidth=1;direction=south;html=1;" parent="1" vertex="1">
          <mxGeometry x="3369" y="466.5" width="20" height="25" as="geometry" />
        </mxCell>
        <mxCell id="dm9eH3l4-ublejLlUbJZ-155" value="" style="line;strokeWidth=1;direction=south;html=1;" parent="1" vertex="1">
          <mxGeometry x="3369" y="521.5" width="20" height="25" as="geometry" />
        </mxCell>
        <mxCell id="dm9eH3l4-ublejLlUbJZ-156" value="" style="line;strokeWidth=1;direction=south;html=1;" parent="1" vertex="1">
          <mxGeometry x="3408" y="466.5" width="20" height="25" as="geometry" />
        </mxCell>
        <mxCell id="dm9eH3l4-ublejLlUbJZ-157" value="" style="line;strokeWidth=1;direction=south;html=1;" parent="1" vertex="1">
          <mxGeometry x="3408" y="521.5" width="20" height="25" as="geometry" />
        </mxCell>
        <mxCell id="dm9eH3l4-ublejLlUbJZ-158" value="4" style="text;html=1;align=center;verticalAlign=middle;whiteSpace=wrap;rounded=0;" parent="1" vertex="1">
          <mxGeometry x="3378" y="502.5" width="40" height="19" as="geometry" />
        </mxCell>
        <mxCell id="dm9eH3l4-ublejLlUbJZ-159" value="17" style="text;html=1;align=center;verticalAlign=middle;whiteSpace=wrap;rounded=0;" parent="1" vertex="1">
          <mxGeometry x="3349" y="469.5" width="40" height="19" as="geometry" />
        </mxCell>
        <mxCell id="dm9eH3l4-ublejLlUbJZ-160" value="21" style="text;html=1;align=center;verticalAlign=middle;whiteSpace=wrap;rounded=0;" parent="1" vertex="1">
          <mxGeometry x="3408" y="469.5" width="40" height="19" as="geometry" />
        </mxCell>
        <mxCell id="dm9eH3l4-ublejLlUbJZ-161" value="19" style="text;html=1;align=center;verticalAlign=middle;whiteSpace=wrap;rounded=0;" parent="1" vertex="1">
          <mxGeometry x="3349" y="524.5" width="40" height="19" as="geometry" />
        </mxCell>
        <mxCell id="dm9eH3l4-ublejLlUbJZ-162" value="23" style="text;html=1;align=center;verticalAlign=middle;whiteSpace=wrap;rounded=0;" parent="1" vertex="1">
          <mxGeometry x="3408" y="524.5" width="40" height="19" as="geometry" />
        </mxCell>
        <mxCell id="dm9eH3l4-ublejLlUbJZ-163" value="J" style="text;html=1;align=center;verticalAlign=middle;whiteSpace=wrap;rounded=0;" parent="1" vertex="1">
          <mxGeometry x="3378" y="490.5" width="40" height="19" as="geometry" />
        </mxCell>
        <mxCell id="dm9eH3l4-ublejLlUbJZ-164" value="Slack = 2" style="text;html=1;align=center;verticalAlign=middle;whiteSpace=wrap;rounded=0;" parent="1" vertex="1">
          <mxGeometry x="3358" y="546.5" width="80" height="19" as="geometry" />
        </mxCell>
        <mxCell id="dm9eH3l4-ublejLlUbJZ-165" value="" style="endArrow=classic;html=1;rounded=0;entryX=0;entryY=0.5;entryDx=0;entryDy=0;" parent="1" source="dm9eH3l4-ublejLlUbJZ-136" target="dm9eH3l4-ublejLlUbJZ-151" edge="1">
          <mxGeometry width="50" height="50" relative="1" as="geometry">
            <mxPoint x="3130" y="451" as="sourcePoint" />
            <mxPoint x="3180" y="401" as="targetPoint" />
          </mxGeometry>
        </mxCell>
        <mxCell id="dm9eH3l4-ublejLlUbJZ-166" value="" style="endArrow=classic;html=1;rounded=0;entryX=0;entryY=0.5;entryDx=0;entryDy=0;" parent="1" target="dm9eH3l4-ublejLlUbJZ-151" edge="1">
          <mxGeometry width="50" height="50" relative="1" as="geometry">
            <mxPoint x="3240" y="231" as="sourcePoint" />
            <mxPoint x="3310" y="331" as="targetPoint" />
          </mxGeometry>
        </mxCell>
        <mxCell id="dm9eH3l4-ublejLlUbJZ-167" value="SS6" style="edgeLabel;html=1;align=center;verticalAlign=middle;resizable=0;points=[];" parent="dm9eH3l4-ublejLlUbJZ-166" vertex="1" connectable="0">
          <mxGeometry x="0.0038" y="1" relative="1" as="geometry">
            <mxPoint as="offset" />
          </mxGeometry>
        </mxCell>
        <mxCell id="dm9eH3l4-ublejLlUbJZ-168" value="" style="whiteSpace=wrap;html=1;aspect=fixed;strokeWidth=1;" parent="1" vertex="1">
          <mxGeometry x="3508" y="484" width="80" height="80" as="geometry" />
        </mxCell>
        <mxCell id="dm9eH3l4-ublejLlUbJZ-169" value="" style="line;strokeWidth=1;html=1;" parent="1" vertex="1">
          <mxGeometry x="3508" y="504" width="80" height="10" as="geometry" />
        </mxCell>
        <mxCell id="dm9eH3l4-ublejLlUbJZ-170" value="" style="line;strokeWidth=1;html=1;" parent="1" vertex="1">
          <mxGeometry x="3508" y="534" width="80" height="10" as="geometry" />
        </mxCell>
        <mxCell id="dm9eH3l4-ublejLlUbJZ-171" value="" style="line;strokeWidth=1;direction=south;html=1;" parent="1" vertex="1">
          <mxGeometry x="3519" y="484" width="20" height="25" as="geometry" />
        </mxCell>
        <mxCell id="dm9eH3l4-ublejLlUbJZ-172" value="" style="line;strokeWidth=1;direction=south;html=1;" parent="1" vertex="1">
          <mxGeometry x="3519" y="539" width="20" height="25" as="geometry" />
        </mxCell>
        <mxCell id="dm9eH3l4-ublejLlUbJZ-173" value="" style="line;strokeWidth=1;direction=south;html=1;" parent="1" vertex="1">
          <mxGeometry x="3558" y="484" width="20" height="25" as="geometry" />
        </mxCell>
        <mxCell id="dm9eH3l4-ublejLlUbJZ-174" value="" style="line;strokeWidth=1;direction=south;html=1;" parent="1" vertex="1">
          <mxGeometry x="3558" y="539" width="20" height="25" as="geometry" />
        </mxCell>
        <mxCell id="dm9eH3l4-ublejLlUbJZ-175" value="8" style="text;html=1;align=center;verticalAlign=middle;whiteSpace=wrap;rounded=0;" parent="1" vertex="1">
          <mxGeometry x="3528" y="520" width="40" height="19" as="geometry" />
        </mxCell>
        <mxCell id="dm9eH3l4-ublejLlUbJZ-176" value="21" style="text;html=1;align=center;verticalAlign=middle;whiteSpace=wrap;rounded=0;" parent="1" vertex="1">
          <mxGeometry x="3499" y="487" width="40" height="19" as="geometry" />
        </mxCell>
        <mxCell id="dm9eH3l4-ublejLlUbJZ-177" value="29" style="text;html=1;align=center;verticalAlign=middle;whiteSpace=wrap;rounded=0;" parent="1" vertex="1">
          <mxGeometry x="3558" y="487" width="40" height="19" as="geometry" />
        </mxCell>
        <mxCell id="dm9eH3l4-ublejLlUbJZ-178" value="23" style="text;html=1;align=center;verticalAlign=middle;whiteSpace=wrap;rounded=0;" parent="1" vertex="1">
          <mxGeometry x="3499" y="542" width="40" height="19" as="geometry" />
        </mxCell>
        <mxCell id="dm9eH3l4-ublejLlUbJZ-179" value="31" style="text;html=1;align=center;verticalAlign=middle;whiteSpace=wrap;rounded=0;" parent="1" vertex="1">
          <mxGeometry x="3558" y="542" width="40" height="19" as="geometry" />
        </mxCell>
        <mxCell id="dm9eH3l4-ublejLlUbJZ-180" value="K" style="text;html=1;align=center;verticalAlign=middle;whiteSpace=wrap;rounded=0;" parent="1" vertex="1">
          <mxGeometry x="3528" y="508" width="40" height="19" as="geometry" />
        </mxCell>
        <mxCell id="dm9eH3l4-ublejLlUbJZ-181" value="Slack = 2" style="text;html=1;align=center;verticalAlign=middle;whiteSpace=wrap;rounded=0;" parent="1" vertex="1">
          <mxGeometry x="3508" y="564" width="80" height="19" as="geometry" />
        </mxCell>
        <mxCell id="dm9eH3l4-ublejLlUbJZ-182" value="" style="endArrow=classic;html=1;rounded=0;entryX=0;entryY=0.5;entryDx=0;entryDy=0;exitX=1.021;exitY=0.574;exitDx=0;exitDy=0;exitPerimeter=0;" parent="1" source="dm9eH3l4-ublejLlUbJZ-151" target="dm9eH3l4-ublejLlUbJZ-168" edge="1">
          <mxGeometry width="50" height="50" relative="1" as="geometry">
            <mxPoint x="3280" y="451" as="sourcePoint" />
            <mxPoint x="3330" y="401" as="targetPoint" />
          </mxGeometry>
        </mxCell>
        <mxCell id="dm9eH3l4-ublejLlUbJZ-183" value="" style="endArrow=classic;html=1;rounded=0;entryX=-0.006;entryY=0.414;entryDx=0;entryDy=0;entryPerimeter=0;exitX=1;exitY=0.5;exitDx=0;exitDy=0;" parent="1" source="dm9eH3l4-ublejLlUbJZ-30" target="dm9eH3l4-ublejLlUbJZ-168" edge="1">
          <mxGeometry width="50" height="50" relative="1" as="geometry">
            <mxPoint x="3280" y="451" as="sourcePoint" />
            <mxPoint x="3330" y="401" as="targetPoint" />
          </mxGeometry>
        </mxCell>
        <mxCell id="dm9eH3l4-ublejLlUbJZ-184" value="" style="endArrow=classic;html=1;rounded=0;exitX=0.972;exitY=0.598;exitDx=0;exitDy=0;exitPerimeter=0;entryX=0;entryY=0.5;entryDx=0;entryDy=0;" parent="1" source="dm9eH3l4-ublejLlUbJZ-168" target="dm9eH3l4-ublejLlUbJZ-90" edge="1">
          <mxGeometry width="50" height="50" relative="1" as="geometry">
            <mxPoint x="3600" y="661" as="sourcePoint" />
            <mxPoint x="3650" y="611" as="targetPoint" />
          </mxGeometry>
        </mxCell>
        <mxCell id="dm9eH3l4-ublejLlUbJZ-185" value="SS2" style="edgeLabel;html=1;align=center;verticalAlign=middle;resizable=0;points=[];" parent="dm9eH3l4-ublejLlUbJZ-184" vertex="1" connectable="0">
          <mxGeometry x="0.1676" y="3" relative="1" as="geometry">
            <mxPoint as="offset" />
          </mxGeometry>
        </mxCell>
        <mxCell id="dm9eH3l4-ublejLlUbJZ-186" value="" style="whiteSpace=wrap;html=1;aspect=fixed;strokeWidth=1;" parent="1" vertex="1">
          <mxGeometry x="3369" y="631" width="80" height="80" as="geometry" />
        </mxCell>
        <mxCell id="dm9eH3l4-ublejLlUbJZ-187" value="" style="line;strokeWidth=1;html=1;" parent="1" vertex="1">
          <mxGeometry x="3369" y="651" width="80" height="10" as="geometry" />
        </mxCell>
        <mxCell id="dm9eH3l4-ublejLlUbJZ-188" value="" style="line;strokeWidth=1;html=1;" parent="1" vertex="1">
          <mxGeometry x="3369" y="681" width="80" height="10" as="geometry" />
        </mxCell>
        <mxCell id="dm9eH3l4-ublejLlUbJZ-189" value="" style="line;strokeWidth=1;direction=south;html=1;" parent="1" vertex="1">
          <mxGeometry x="3380" y="631" width="20" height="25" as="geometry" />
        </mxCell>
        <mxCell id="dm9eH3l4-ublejLlUbJZ-190" value="" style="line;strokeWidth=1;direction=south;html=1;" parent="1" vertex="1">
          <mxGeometry x="3380" y="686" width="20" height="25" as="geometry" />
        </mxCell>
        <mxCell id="dm9eH3l4-ublejLlUbJZ-191" value="" style="line;strokeWidth=1;direction=south;html=1;" parent="1" vertex="1">
          <mxGeometry x="3419" y="631" width="20" height="25" as="geometry" />
        </mxCell>
        <mxCell id="dm9eH3l4-ublejLlUbJZ-192" value="" style="line;strokeWidth=1;direction=south;html=1;" parent="1" vertex="1">
          <mxGeometry x="3419" y="686" width="20" height="25" as="geometry" />
        </mxCell>
        <mxCell id="dm9eH3l4-ublejLlUbJZ-193" value="7" style="text;html=1;align=center;verticalAlign=middle;whiteSpace=wrap;rounded=0;" parent="1" vertex="1">
          <mxGeometry x="3389" y="667" width="40" height="19" as="geometry" />
        </mxCell>
        <mxCell id="dm9eH3l4-ublejLlUbJZ-194" value="9" style="text;html=1;align=center;verticalAlign=middle;whiteSpace=wrap;rounded=0;" parent="1" vertex="1">
          <mxGeometry x="3360" y="634" width="40" height="19" as="geometry" />
        </mxCell>
        <mxCell id="dm9eH3l4-ublejLlUbJZ-195" value="16" style="text;html=1;align=center;verticalAlign=middle;whiteSpace=wrap;rounded=0;" parent="1" vertex="1">
          <mxGeometry x="3419" y="634" width="40" height="19" as="geometry" />
        </mxCell>
        <mxCell id="dm9eH3l4-ublejLlUbJZ-196" value="36" style="text;html=1;align=center;verticalAlign=middle;whiteSpace=wrap;rounded=0;" parent="1" vertex="1">
          <mxGeometry x="3360" y="689" width="40" height="19" as="geometry" />
        </mxCell>
        <mxCell id="dm9eH3l4-ublejLlUbJZ-197" value="43" style="text;html=1;align=center;verticalAlign=middle;whiteSpace=wrap;rounded=0;" parent="1" vertex="1">
          <mxGeometry x="3419" y="689" width="40" height="19" as="geometry" />
        </mxCell>
        <mxCell id="dm9eH3l4-ublejLlUbJZ-198" value="L" style="text;html=1;align=center;verticalAlign=middle;whiteSpace=wrap;rounded=0;" parent="1" vertex="1">
          <mxGeometry x="3389" y="655" width="40" height="19" as="geometry" />
        </mxCell>
        <mxCell id="dm9eH3l4-ublejLlUbJZ-199" value="Slack = 27" style="text;html=1;align=center;verticalAlign=middle;whiteSpace=wrap;rounded=0;" parent="1" vertex="1">
          <mxGeometry x="3369" y="711" width="80" height="19" as="geometry" />
        </mxCell>
        <mxCell id="dm9eH3l4-ublejLlUbJZ-200" value="" style="endArrow=classic;html=1;rounded=0;entryX=0;entryY=0.5;entryDx=0;entryDy=0;exitX=1;exitY=0.5;exitDx=0;exitDy=0;" parent="1" source="dm9eH3l4-ublejLlUbJZ-136" target="dm9eH3l4-ublejLlUbJZ-186" edge="1">
          <mxGeometry width="50" height="50" relative="1" as="geometry">
            <mxPoint x="3200" y="711" as="sourcePoint" />
            <mxPoint x="3250" y="661" as="targetPoint" />
          </mxGeometry>
        </mxCell>
        <mxCell id="dm9eH3l4-ublejLlUbJZ-201" value="SS4" style="edgeLabel;html=1;align=center;verticalAlign=middle;resizable=0;points=[];" parent="dm9eH3l4-ublejLlUbJZ-200" vertex="1" connectable="0">
          <mxGeometry x="0.0668" y="-2" relative="1" as="geometry">
            <mxPoint as="offset" />
          </mxGeometry>
        </mxCell>
        <mxCell id="dm9eH3l4-ublejLlUbJZ-202" value="" style="whiteSpace=wrap;html=1;aspect=fixed;strokeWidth=1;" parent="1" vertex="1">
          <mxGeometry x="3537" y="634" width="80" height="80" as="geometry" />
        </mxCell>
        <mxCell id="dm9eH3l4-ublejLlUbJZ-203" value="" style="line;strokeWidth=1;html=1;" parent="1" vertex="1">
          <mxGeometry x="3537" y="654" width="80" height="10" as="geometry" />
        </mxCell>
        <mxCell id="dm9eH3l4-ublejLlUbJZ-204" value="" style="line;strokeWidth=1;html=1;" parent="1" vertex="1">
          <mxGeometry x="3537" y="684" width="80" height="10" as="geometry" />
        </mxCell>
        <mxCell id="dm9eH3l4-ublejLlUbJZ-205" value="" style="line;strokeWidth=1;direction=south;html=1;" parent="1" vertex="1">
          <mxGeometry x="3548" y="634" width="20" height="25" as="geometry" />
        </mxCell>
        <mxCell id="dm9eH3l4-ublejLlUbJZ-206" value="" style="line;strokeWidth=1;direction=south;html=1;" parent="1" vertex="1">
          <mxGeometry x="3548" y="689" width="20" height="25" as="geometry" />
        </mxCell>
        <mxCell id="dm9eH3l4-ublejLlUbJZ-207" value="" style="line;strokeWidth=1;direction=south;html=1;" parent="1" vertex="1">
          <mxGeometry x="3587" y="634" width="20" height="25" as="geometry" />
        </mxCell>
        <mxCell id="dm9eH3l4-ublejLlUbJZ-208" value="" style="line;strokeWidth=1;direction=south;html=1;" parent="1" vertex="1">
          <mxGeometry x="3587" y="689" width="20" height="25" as="geometry" />
        </mxCell>
        <mxCell id="dm9eH3l4-ublejLlUbJZ-209" value="14" style="text;html=1;align=center;verticalAlign=middle;whiteSpace=wrap;rounded=0;" parent="1" vertex="1">
          <mxGeometry x="3557" y="670" width="40" height="19" as="geometry" />
        </mxCell>
        <mxCell id="dm9eH3l4-ublejLlUbJZ-210" value="20" style="text;html=1;align=center;verticalAlign=middle;whiteSpace=wrap;rounded=0;" parent="1" vertex="1">
          <mxGeometry x="3528" y="637" width="40" height="19" as="geometry" />
        </mxCell>
        <mxCell id="dm9eH3l4-ublejLlUbJZ-211" value="34" style="text;html=1;align=center;verticalAlign=middle;whiteSpace=wrap;rounded=0;" parent="1" vertex="1">
          <mxGeometry x="3587" y="637" width="40" height="19" as="geometry" />
        </mxCell>
        <mxCell id="dm9eH3l4-ublejLlUbJZ-212" value="43" style="text;html=1;align=center;verticalAlign=middle;whiteSpace=wrap;rounded=0;" parent="1" vertex="1">
          <mxGeometry x="3528" y="692" width="40" height="19" as="geometry" />
        </mxCell>
        <mxCell id="dm9eH3l4-ublejLlUbJZ-213" value="57" style="text;html=1;align=center;verticalAlign=middle;whiteSpace=wrap;rounded=0;" parent="1" vertex="1">
          <mxGeometry x="3587" y="692" width="40" height="19" as="geometry" />
        </mxCell>
        <mxCell id="dm9eH3l4-ublejLlUbJZ-214" value="M" style="text;html=1;align=center;verticalAlign=middle;whiteSpace=wrap;rounded=0;" parent="1" vertex="1">
          <mxGeometry x="3557" y="658" width="40" height="19" as="geometry" />
        </mxCell>
        <mxCell id="dm9eH3l4-ublejLlUbJZ-215" value="Slack = 23" style="text;html=1;align=center;verticalAlign=middle;whiteSpace=wrap;rounded=0;" parent="1" vertex="1">
          <mxGeometry x="3537" y="714" width="80" height="19" as="geometry" />
        </mxCell>
        <mxCell id="dm9eH3l4-ublejLlUbJZ-216" value="" style="endArrow=classic;html=1;rounded=0;entryX=0;entryY=0.5;entryDx=0;entryDy=0;" parent="1" target="dm9eH3l4-ublejLlUbJZ-202" edge="1">
          <mxGeometry width="50" height="50" relative="1" as="geometry">
            <mxPoint x="3450" y="671" as="sourcePoint" />
            <mxPoint x="3530" y="671" as="targetPoint" />
          </mxGeometry>
        </mxCell>
        <mxCell id="dm9eH3l4-ublejLlUbJZ-217" value="" style="endArrow=classic;html=1;rounded=0;entryX=-0.021;entryY=0.43;entryDx=0;entryDy=0;entryPerimeter=0;exitX=0.999;exitY=0.607;exitDx=0;exitDy=0;exitPerimeter=0;" parent="1" source="dm9eH3l4-ublejLlUbJZ-151" target="dm9eH3l4-ublejLlUbJZ-202" edge="1">
          <mxGeometry width="50" height="50" relative="1" as="geometry">
            <mxPoint x="3460" y="641" as="sourcePoint" />
            <mxPoint x="3510" y="591" as="targetPoint" />
          </mxGeometry>
        </mxCell>
        <mxCell id="dm9eH3l4-ublejLlUbJZ-218" value="SS3" style="edgeLabel;html=1;align=center;verticalAlign=middle;resizable=0;points=[];" parent="dm9eH3l4-ublejLlUbJZ-217" vertex="1" connectable="0">
          <mxGeometry x="0.2149" y="-1" relative="1" as="geometry">
            <mxPoint as="offset" />
          </mxGeometry>
        </mxCell>
        <mxCell id="dm9eH3l4-ublejLlUbJZ-219" value="" style="whiteSpace=wrap;html=1;aspect=fixed;strokeWidth=1;" parent="1" vertex="1">
          <mxGeometry x="3878" y="386.5" width="80" height="80" as="geometry" />
        </mxCell>
        <mxCell id="dm9eH3l4-ublejLlUbJZ-220" value="" style="line;strokeWidth=1;html=1;" parent="1" vertex="1">
          <mxGeometry x="3878" y="406.5" width="80" height="10" as="geometry" />
        </mxCell>
        <mxCell id="dm9eH3l4-ublejLlUbJZ-221" value="" style="line;strokeWidth=1;html=1;" parent="1" vertex="1">
          <mxGeometry x="3878" y="436.5" width="80" height="10" as="geometry" />
        </mxCell>
        <mxCell id="dm9eH3l4-ublejLlUbJZ-222" value="" style="line;strokeWidth=1;direction=south;html=1;" parent="1" vertex="1">
          <mxGeometry x="3889" y="386.5" width="20" height="25" as="geometry" />
        </mxCell>
        <mxCell id="dm9eH3l4-ublejLlUbJZ-223" value="" style="line;strokeWidth=1;direction=south;html=1;" parent="1" vertex="1">
          <mxGeometry x="3889" y="441.5" width="20" height="25" as="geometry" />
        </mxCell>
        <mxCell id="dm9eH3l4-ublejLlUbJZ-224" value="" style="line;strokeWidth=1;direction=south;html=1;" parent="1" vertex="1">
          <mxGeometry x="3928" y="386.5" width="20" height="25" as="geometry" />
        </mxCell>
        <mxCell id="dm9eH3l4-ublejLlUbJZ-225" value="" style="line;strokeWidth=1;direction=south;html=1;" parent="1" vertex="1">
          <mxGeometry x="3928" y="441.5" width="20" height="25" as="geometry" />
        </mxCell>
        <mxCell id="dm9eH3l4-ublejLlUbJZ-226" value="10" style="text;html=1;align=center;verticalAlign=middle;whiteSpace=wrap;rounded=0;" parent="1" vertex="1">
          <mxGeometry x="3898" y="422.5" width="40" height="19" as="geometry" />
        </mxCell>
        <mxCell id="dm9eH3l4-ublejLlUbJZ-227" value="34" style="text;html=1;align=center;verticalAlign=middle;whiteSpace=wrap;rounded=0;" parent="1" vertex="1">
          <mxGeometry x="3869" y="389.5" width="40" height="19" as="geometry" />
        </mxCell>
        <mxCell id="dm9eH3l4-ublejLlUbJZ-228" value="44" style="text;html=1;align=center;verticalAlign=middle;whiteSpace=wrap;rounded=0;" parent="1" vertex="1">
          <mxGeometry x="3928" y="389.5" width="40" height="19" as="geometry" />
        </mxCell>
        <mxCell id="dm9eH3l4-ublejLlUbJZ-229" value="57" style="text;html=1;align=center;verticalAlign=middle;whiteSpace=wrap;rounded=0;" parent="1" vertex="1">
          <mxGeometry x="3869" y="444.5" width="40" height="19" as="geometry" />
        </mxCell>
        <mxCell id="dm9eH3l4-ublejLlUbJZ-230" value="67" style="text;html=1;align=center;verticalAlign=middle;whiteSpace=wrap;rounded=0;" parent="1" vertex="1">
          <mxGeometry x="3928" y="444.5" width="40" height="19" as="geometry" />
        </mxCell>
        <mxCell id="dm9eH3l4-ublejLlUbJZ-231" value="N" style="text;html=1;align=center;verticalAlign=middle;whiteSpace=wrap;rounded=0;" parent="1" vertex="1">
          <mxGeometry x="3898" y="410.5" width="40" height="19" as="geometry" />
        </mxCell>
        <mxCell id="dm9eH3l4-ublejLlUbJZ-232" value="Slack = 23" style="text;html=1;align=center;verticalAlign=middle;whiteSpace=wrap;rounded=0;" parent="1" vertex="1">
          <mxGeometry x="3878" y="466.5" width="80" height="19" as="geometry" />
        </mxCell>
        <mxCell id="dm9eH3l4-ublejLlUbJZ-233" value="" style="endArrow=classic;html=1;rounded=0;exitX=1;exitY=0.5;exitDx=0;exitDy=0;entryX=0;entryY=0.5;entryDx=0;entryDy=0;" parent="1" source="dm9eH3l4-ublejLlUbJZ-202" target="dm9eH3l4-ublejLlUbJZ-219" edge="1">
          <mxGeometry width="50" height="50" relative="1" as="geometry">
            <mxPoint x="3680" y="661" as="sourcePoint" />
            <mxPoint x="3730" y="611" as="targetPoint" />
          </mxGeometry>
        </mxCell>
        <mxCell id="dm9eH3l4-ublejLlUbJZ-234" value="" style="endArrow=classic;html=1;rounded=0;exitX=1;exitY=0.5;exitDx=0;exitDy=0;entryX=0;entryY=0.5;entryDx=0;entryDy=0;" parent="1" source="dm9eH3l4-ublejLlUbJZ-74" target="dm9eH3l4-ublejLlUbJZ-219" edge="1">
          <mxGeometry width="50" height="50" relative="1" as="geometry">
            <mxPoint x="3780" y="391" as="sourcePoint" />
            <mxPoint x="3830" y="341" as="targetPoint" />
          </mxGeometry>
        </mxCell>
        <mxCell id="dm9eH3l4-ublejLlUbJZ-235" value="" style="whiteSpace=wrap;html=1;aspect=fixed;strokeWidth=1;" parent="1" vertex="1">
          <mxGeometry x="3888" y="239.5" width="80" height="80" as="geometry" />
        </mxCell>
        <mxCell id="dm9eH3l4-ublejLlUbJZ-236" value="" style="line;strokeWidth=1;html=1;" parent="1" vertex="1">
          <mxGeometry x="3888" y="259.5" width="80" height="10" as="geometry" />
        </mxCell>
        <mxCell id="dm9eH3l4-ublejLlUbJZ-237" value="" style="line;strokeWidth=1;html=1;" parent="1" vertex="1">
          <mxGeometry x="3888" y="289.5" width="80" height="10" as="geometry" />
        </mxCell>
        <mxCell id="dm9eH3l4-ublejLlUbJZ-238" value="" style="line;strokeWidth=1;direction=south;html=1;" parent="1" vertex="1">
          <mxGeometry x="3899" y="239.5" width="20" height="25" as="geometry" />
        </mxCell>
        <mxCell id="dm9eH3l4-ublejLlUbJZ-239" value="" style="line;strokeWidth=1;direction=south;html=1;" parent="1" vertex="1">
          <mxGeometry x="3899" y="294.5" width="20" height="25" as="geometry" />
        </mxCell>
        <mxCell id="dm9eH3l4-ublejLlUbJZ-240" value="" style="line;strokeWidth=1;direction=south;html=1;" parent="1" vertex="1">
          <mxGeometry x="3938" y="239.5" width="20" height="25" as="geometry" />
        </mxCell>
        <mxCell id="dm9eH3l4-ublejLlUbJZ-241" value="" style="line;strokeWidth=1;direction=south;html=1;" parent="1" vertex="1">
          <mxGeometry x="3938" y="294.5" width="20" height="25" as="geometry" />
        </mxCell>
        <mxCell id="dm9eH3l4-ublejLlUbJZ-242" value="32" style="text;html=1;align=center;verticalAlign=middle;whiteSpace=wrap;rounded=0;" parent="1" vertex="1">
          <mxGeometry x="3908" y="275.5" width="40" height="19" as="geometry" />
        </mxCell>
        <mxCell id="dm9eH3l4-ublejLlUbJZ-243" value="30" style="text;html=1;align=center;verticalAlign=middle;whiteSpace=wrap;rounded=0;" parent="1" vertex="1">
          <mxGeometry x="3879" y="242.5" width="40" height="19" as="geometry" />
        </mxCell>
        <mxCell id="dm9eH3l4-ublejLlUbJZ-244" value="62" style="text;html=1;align=center;verticalAlign=middle;whiteSpace=wrap;rounded=0;" parent="1" vertex="1">
          <mxGeometry x="3938" y="242.5" width="40" height="19" as="geometry" />
        </mxCell>
        <mxCell id="dm9eH3l4-ublejLlUbJZ-245" value="30" style="text;html=1;align=center;verticalAlign=middle;whiteSpace=wrap;rounded=0;" parent="1" vertex="1">
          <mxGeometry x="3879" y="297.5" width="40" height="19" as="geometry" />
        </mxCell>
        <mxCell id="dm9eH3l4-ublejLlUbJZ-246" value="62" style="text;html=1;align=center;verticalAlign=middle;whiteSpace=wrap;rounded=0;" parent="1" vertex="1">
          <mxGeometry x="3938" y="297.5" width="40" height="19" as="geometry" />
        </mxCell>
        <mxCell id="dm9eH3l4-ublejLlUbJZ-247" value="O" style="text;html=1;align=center;verticalAlign=middle;whiteSpace=wrap;rounded=0;" parent="1" vertex="1">
          <mxGeometry x="3908" y="263.5" width="40" height="19" as="geometry" />
        </mxCell>
        <mxCell id="dm9eH3l4-ublejLlUbJZ-248" value="Slack = 0" style="text;html=1;align=center;verticalAlign=middle;whiteSpace=wrap;rounded=0;" parent="1" vertex="1">
          <mxGeometry x="3888" y="319.5" width="80" height="19" as="geometry" />
        </mxCell>
        <mxCell id="dm9eH3l4-ublejLlUbJZ-249" value="" style="endArrow=classic;html=1;rounded=0;exitX=1;exitY=0.5;exitDx=0;exitDy=0;entryX=0;entryY=0.5;entryDx=0;entryDy=0;" parent="1" source="dm9eH3l4-ublejLlUbJZ-90" target="dm9eH3l4-ublejLlUbJZ-235" edge="1">
          <mxGeometry width="50" height="50" relative="1" as="geometry">
            <mxPoint x="3730" y="391" as="sourcePoint" />
            <mxPoint x="3780" y="341" as="targetPoint" />
          </mxGeometry>
        </mxCell>
        <mxCell id="dm9eH3l4-ublejLlUbJZ-250" value="" style="endArrow=classic;html=1;rounded=0;exitX=1;exitY=0.5;exitDx=0;exitDy=0;entryX=-0.008;entryY=0.433;entryDx=0;entryDy=0;entryPerimeter=0;" parent="1" source="dm9eH3l4-ublejLlUbJZ-59" target="dm9eH3l4-ublejLlUbJZ-235" edge="1">
          <mxGeometry width="50" height="50" relative="1" as="geometry">
            <mxPoint x="3770" y="231" as="sourcePoint" />
            <mxPoint x="3820" y="181" as="targetPoint" />
          </mxGeometry>
        </mxCell>
        <mxCell id="dm9eH3l4-ublejLlUbJZ-251" value="" style="whiteSpace=wrap;html=1;aspect=fixed;strokeWidth=1;" parent="1" vertex="1">
          <mxGeometry x="3798" y="624.5" width="80" height="80" as="geometry" />
        </mxCell>
        <mxCell id="dm9eH3l4-ublejLlUbJZ-252" value="" style="line;strokeWidth=1;html=1;" parent="1" vertex="1">
          <mxGeometry x="3798" y="644.5" width="80" height="10" as="geometry" />
        </mxCell>
        <mxCell id="dm9eH3l4-ublejLlUbJZ-253" value="" style="line;strokeWidth=1;html=1;" parent="1" vertex="1">
          <mxGeometry x="3798" y="674.5" width="80" height="10" as="geometry" />
        </mxCell>
        <mxCell id="dm9eH3l4-ublejLlUbJZ-254" value="" style="line;strokeWidth=1;direction=south;html=1;" parent="1" vertex="1">
          <mxGeometry x="3809" y="624.5" width="20" height="25" as="geometry" />
        </mxCell>
        <mxCell id="dm9eH3l4-ublejLlUbJZ-255" value="" style="line;strokeWidth=1;direction=south;html=1;" parent="1" vertex="1">
          <mxGeometry x="3809" y="679.5" width="20" height="25" as="geometry" />
        </mxCell>
        <mxCell id="dm9eH3l4-ublejLlUbJZ-256" value="" style="line;strokeWidth=1;direction=south;html=1;" parent="1" vertex="1">
          <mxGeometry x="3848" y="624.5" width="20" height="25" as="geometry" />
        </mxCell>
        <mxCell id="dm9eH3l4-ublejLlUbJZ-257" value="" style="line;strokeWidth=1;direction=south;html=1;" parent="1" vertex="1">
          <mxGeometry x="3848" y="679.5" width="20" height="25" as="geometry" />
        </mxCell>
        <mxCell id="dm9eH3l4-ublejLlUbJZ-258" value="16" style="text;html=1;align=center;verticalAlign=middle;whiteSpace=wrap;rounded=0;" parent="1" vertex="1">
          <mxGeometry x="3818" y="660.5" width="40" height="19" as="geometry" />
        </mxCell>
        <mxCell id="dm9eH3l4-ublejLlUbJZ-259" value="29" style="text;html=1;align=center;verticalAlign=middle;whiteSpace=wrap;rounded=0;" parent="1" vertex="1">
          <mxGeometry x="3789" y="627.5" width="40" height="19" as="geometry" />
        </mxCell>
        <mxCell id="dm9eH3l4-ublejLlUbJZ-260" value="45" style="text;html=1;align=center;verticalAlign=middle;whiteSpace=wrap;rounded=0;" parent="1" vertex="1">
          <mxGeometry x="3848" y="627.5" width="40" height="19" as="geometry" />
        </mxCell>
        <mxCell id="dm9eH3l4-ublejLlUbJZ-261" value="35" style="text;html=1;align=center;verticalAlign=middle;whiteSpace=wrap;rounded=0;" parent="1" vertex="1">
          <mxGeometry x="3789" y="682.5" width="40" height="19" as="geometry" />
        </mxCell>
        <mxCell id="dm9eH3l4-ublejLlUbJZ-262" value="51" style="text;html=1;align=center;verticalAlign=middle;whiteSpace=wrap;rounded=0;" parent="1" vertex="1">
          <mxGeometry x="3848" y="682.5" width="40" height="19" as="geometry" />
        </mxCell>
        <mxCell id="dm9eH3l4-ublejLlUbJZ-263" value="P" style="text;html=1;align=center;verticalAlign=middle;whiteSpace=wrap;rounded=0;" parent="1" vertex="1">
          <mxGeometry x="3818" y="648.5" width="40" height="19" as="geometry" />
        </mxCell>
        <mxCell id="dm9eH3l4-ublejLlUbJZ-264" value="Slack = 6" style="text;html=1;align=center;verticalAlign=middle;whiteSpace=wrap;rounded=0;" parent="1" vertex="1">
          <mxGeometry x="3798" y="704.5" width="80" height="19" as="geometry" />
        </mxCell>
        <mxCell id="dm9eH3l4-ublejLlUbJZ-265" value="" style="endArrow=classic;html=1;rounded=0;entryX=0;entryY=0.5;entryDx=0;entryDy=0;" parent="1" target="dm9eH3l4-ublejLlUbJZ-251" edge="1">
          <mxGeometry width="50" height="50" relative="1" as="geometry">
            <mxPoint x="3590" y="531" as="sourcePoint" />
            <mxPoint x="3750" y="671" as="targetPoint" />
          </mxGeometry>
        </mxCell>
        <mxCell id="dm9eH3l4-ublejLlUbJZ-266" value="" style="whiteSpace=wrap;html=1;aspect=fixed;strokeWidth=1;" parent="1" vertex="1">
          <mxGeometry x="4069" y="326" width="80" height="80" as="geometry" />
        </mxCell>
        <mxCell id="dm9eH3l4-ublejLlUbJZ-267" value="" style="line;strokeWidth=1;html=1;" parent="1" vertex="1">
          <mxGeometry x="4069" y="346" width="80" height="10" as="geometry" />
        </mxCell>
        <mxCell id="dm9eH3l4-ublejLlUbJZ-268" value="" style="line;strokeWidth=1;html=1;" parent="1" vertex="1">
          <mxGeometry x="4069" y="376" width="80" height="10" as="geometry" />
        </mxCell>
        <mxCell id="dm9eH3l4-ublejLlUbJZ-269" value="" style="line;strokeWidth=1;direction=south;html=1;" parent="1" vertex="1">
          <mxGeometry x="4080" y="326" width="20" height="25" as="geometry" />
        </mxCell>
        <mxCell id="dm9eH3l4-ublejLlUbJZ-270" value="" style="line;strokeWidth=1;direction=south;html=1;" parent="1" vertex="1">
          <mxGeometry x="4080" y="381" width="20" height="25" as="geometry" />
        </mxCell>
        <mxCell id="dm9eH3l4-ublejLlUbJZ-271" value="" style="line;strokeWidth=1;direction=south;html=1;" parent="1" vertex="1">
          <mxGeometry x="4119" y="326" width="20" height="25" as="geometry" />
        </mxCell>
        <mxCell id="dm9eH3l4-ublejLlUbJZ-272" value="" style="line;strokeWidth=1;direction=south;html=1;" parent="1" vertex="1">
          <mxGeometry x="4119" y="381" width="20" height="25" as="geometry" />
        </mxCell>
        <mxCell id="dm9eH3l4-ublejLlUbJZ-273" value="13" style="text;html=1;align=center;verticalAlign=middle;whiteSpace=wrap;rounded=0;" parent="1" vertex="1">
          <mxGeometry x="4089" y="362" width="40" height="19" as="geometry" />
        </mxCell>
        <mxCell id="dm9eH3l4-ublejLlUbJZ-274" value="44" style="text;html=1;align=center;verticalAlign=middle;whiteSpace=wrap;rounded=0;" parent="1" vertex="1">
          <mxGeometry x="4060" y="329" width="40" height="19" as="geometry" />
        </mxCell>
        <mxCell id="dm9eH3l4-ublejLlUbJZ-275" value="57" style="text;html=1;align=center;verticalAlign=middle;whiteSpace=wrap;rounded=0;" parent="1" vertex="1">
          <mxGeometry x="4119" y="329" width="40" height="19" as="geometry" />
        </mxCell>
        <mxCell id="dm9eH3l4-ublejLlUbJZ-276" value="68" style="text;html=1;align=center;verticalAlign=middle;whiteSpace=wrap;rounded=0;" parent="1" vertex="1">
          <mxGeometry x="4060" y="384" width="40" height="19" as="geometry" />
        </mxCell>
        <mxCell id="dm9eH3l4-ublejLlUbJZ-277" value="81" style="text;html=1;align=center;verticalAlign=middle;whiteSpace=wrap;rounded=0;" parent="1" vertex="1">
          <mxGeometry x="4119" y="384" width="40" height="19" as="geometry" />
        </mxCell>
        <mxCell id="dm9eH3l4-ublejLlUbJZ-278" value="R" style="text;html=1;align=center;verticalAlign=middle;whiteSpace=wrap;rounded=0;" parent="1" vertex="1">
          <mxGeometry x="4089" y="350" width="40" height="19" as="geometry" />
        </mxCell>
        <mxCell id="dm9eH3l4-ublejLlUbJZ-279" value="Slack = 24" style="text;html=1;align=center;verticalAlign=middle;whiteSpace=wrap;rounded=0;" parent="1" vertex="1">
          <mxGeometry x="4069" y="406" width="80" height="19" as="geometry" />
        </mxCell>
        <mxCell id="dm9eH3l4-ublejLlUbJZ-280" value="" style="endArrow=classic;html=1;rounded=0;exitX=1;exitY=0.5;exitDx=0;exitDy=0;entryX=0;entryY=0.5;entryDx=0;entryDy=0;" parent="1" source="dm9eH3l4-ublejLlUbJZ-219" target="dm9eH3l4-ublejLlUbJZ-266" edge="1">
          <mxGeometry width="50" height="50" relative="1" as="geometry">
            <mxPoint x="3950" y="541" as="sourcePoint" />
            <mxPoint x="4000" y="491" as="targetPoint" />
          </mxGeometry>
        </mxCell>
        <mxCell id="dm9eH3l4-ublejLlUbJZ-281" value="" style="whiteSpace=wrap;html=1;aspect=fixed;strokeWidth=1;" parent="1" vertex="1">
          <mxGeometry x="4065" y="138" width="80" height="80" as="geometry" />
        </mxCell>
        <mxCell id="dm9eH3l4-ublejLlUbJZ-282" value="" style="line;strokeWidth=1;html=1;" parent="1" vertex="1">
          <mxGeometry x="4065" y="158" width="80" height="10" as="geometry" />
        </mxCell>
        <mxCell id="dm9eH3l4-ublejLlUbJZ-283" value="" style="line;strokeWidth=1;html=1;" parent="1" vertex="1">
          <mxGeometry x="4065" y="188" width="80" height="10" as="geometry" />
        </mxCell>
        <mxCell id="dm9eH3l4-ublejLlUbJZ-284" value="" style="line;strokeWidth=1;direction=south;html=1;" parent="1" vertex="1">
          <mxGeometry x="4076" y="138" width="20" height="25" as="geometry" />
        </mxCell>
        <mxCell id="dm9eH3l4-ublejLlUbJZ-285" value="" style="line;strokeWidth=1;direction=south;html=1;" parent="1" vertex="1">
          <mxGeometry x="4076" y="193" width="20" height="25" as="geometry" />
        </mxCell>
        <mxCell id="dm9eH3l4-ublejLlUbJZ-286" value="" style="line;strokeWidth=1;direction=south;html=1;" parent="1" vertex="1">
          <mxGeometry x="4115" y="138" width="20" height="25" as="geometry" />
        </mxCell>
        <mxCell id="dm9eH3l4-ublejLlUbJZ-287" value="" style="line;strokeWidth=1;direction=south;html=1;" parent="1" vertex="1">
          <mxGeometry x="4115" y="193" width="20" height="25" as="geometry" />
        </mxCell>
        <mxCell id="dm9eH3l4-ublejLlUbJZ-288" value="12" style="text;html=1;align=center;verticalAlign=middle;whiteSpace=wrap;rounded=0;" parent="1" vertex="1">
          <mxGeometry x="4085" y="174" width="40" height="19" as="geometry" />
        </mxCell>
        <mxCell id="dm9eH3l4-ublejLlUbJZ-289" value="62" style="text;html=1;align=center;verticalAlign=middle;whiteSpace=wrap;rounded=0;" parent="1" vertex="1">
          <mxGeometry x="4056" y="141" width="40" height="19" as="geometry" />
        </mxCell>
        <mxCell id="dm9eH3l4-ublejLlUbJZ-290" value="74" style="text;html=1;align=center;verticalAlign=middle;whiteSpace=wrap;rounded=0;" parent="1" vertex="1">
          <mxGeometry x="4115" y="141" width="40" height="19" as="geometry" />
        </mxCell>
        <mxCell id="dm9eH3l4-ublejLlUbJZ-291" value="62" style="text;html=1;align=center;verticalAlign=middle;whiteSpace=wrap;rounded=0;" parent="1" vertex="1">
          <mxGeometry x="4056" y="196" width="40" height="19" as="geometry" />
        </mxCell>
        <mxCell id="dm9eH3l4-ublejLlUbJZ-292" value="74" style="text;html=1;align=center;verticalAlign=middle;whiteSpace=wrap;rounded=0;" parent="1" vertex="1">
          <mxGeometry x="4115" y="196" width="40" height="19" as="geometry" />
        </mxCell>
        <mxCell id="dm9eH3l4-ublejLlUbJZ-293" value="S" style="text;html=1;align=center;verticalAlign=middle;whiteSpace=wrap;rounded=0;" parent="1" vertex="1">
          <mxGeometry x="4085" y="162" width="40" height="19" as="geometry" />
        </mxCell>
        <mxCell id="dm9eH3l4-ublejLlUbJZ-294" value="Slack = 0" style="text;html=1;align=center;verticalAlign=middle;whiteSpace=wrap;rounded=0;" parent="1" vertex="1">
          <mxGeometry x="4065" y="218" width="80" height="19" as="geometry" />
        </mxCell>
        <mxCell id="dm9eH3l4-ublejLlUbJZ-295" value="" style="whiteSpace=wrap;html=1;aspect=fixed;strokeWidth=1;" parent="1" vertex="1">
          <mxGeometry x="4199" y="482" width="80" height="80" as="geometry" />
        </mxCell>
        <mxCell id="dm9eH3l4-ublejLlUbJZ-296" value="" style="line;strokeWidth=1;html=1;" parent="1" vertex="1">
          <mxGeometry x="4199" y="502" width="80" height="10" as="geometry" />
        </mxCell>
        <mxCell id="dm9eH3l4-ublejLlUbJZ-297" value="" style="line;strokeWidth=1;html=1;" parent="1" vertex="1">
          <mxGeometry x="4199" y="532" width="80" height="10" as="geometry" />
        </mxCell>
        <mxCell id="dm9eH3l4-ublejLlUbJZ-298" value="" style="line;strokeWidth=1;direction=south;html=1;" parent="1" vertex="1">
          <mxGeometry x="4210" y="482" width="20" height="25" as="geometry" />
        </mxCell>
        <mxCell id="dm9eH3l4-ublejLlUbJZ-299" value="" style="line;strokeWidth=1;direction=south;html=1;" parent="1" vertex="1">
          <mxGeometry x="4210" y="537" width="20" height="25" as="geometry" />
        </mxCell>
        <mxCell id="dm9eH3l4-ublejLlUbJZ-300" value="" style="line;strokeWidth=1;direction=south;html=1;" parent="1" vertex="1">
          <mxGeometry x="4249" y="482" width="20" height="25" as="geometry" />
        </mxCell>
        <mxCell id="dm9eH3l4-ublejLlUbJZ-301" value="" style="line;strokeWidth=1;direction=south;html=1;" parent="1" vertex="1">
          <mxGeometry x="4249" y="537" width="20" height="25" as="geometry" />
        </mxCell>
        <mxCell id="dm9eH3l4-ublejLlUbJZ-302" value="7" style="text;html=1;align=center;verticalAlign=middle;whiteSpace=wrap;rounded=0;" parent="1" vertex="1">
          <mxGeometry x="4219" y="518" width="40" height="19" as="geometry" />
        </mxCell>
        <mxCell id="dm9eH3l4-ublejLlUbJZ-303" value="44" style="text;html=1;align=center;verticalAlign=middle;whiteSpace=wrap;rounded=0;" parent="1" vertex="1">
          <mxGeometry x="4190" y="485" width="40" height="19" as="geometry" />
        </mxCell>
        <mxCell id="dm9eH3l4-ublejLlUbJZ-304" value="51" style="text;html=1;align=center;verticalAlign=middle;whiteSpace=wrap;rounded=0;" parent="1" vertex="1">
          <mxGeometry x="4249" y="485" width="40" height="19" as="geometry" />
        </mxCell>
        <mxCell id="dm9eH3l4-ublejLlUbJZ-305" value="67" style="text;html=1;align=center;verticalAlign=middle;whiteSpace=wrap;rounded=0;" parent="1" vertex="1">
          <mxGeometry x="4190" y="540" width="40" height="19" as="geometry" />
        </mxCell>
        <mxCell id="dm9eH3l4-ublejLlUbJZ-306" value="74" style="text;html=1;align=center;verticalAlign=middle;whiteSpace=wrap;rounded=0;" parent="1" vertex="1">
          <mxGeometry x="4249" y="540" width="40" height="19" as="geometry" />
        </mxCell>
        <mxCell id="dm9eH3l4-ublejLlUbJZ-307" value="Q" style="text;html=1;align=center;verticalAlign=middle;whiteSpace=wrap;rounded=0;" parent="1" vertex="1">
          <mxGeometry x="4219" y="506" width="40" height="19" as="geometry" />
        </mxCell>
        <mxCell id="dm9eH3l4-ublejLlUbJZ-308" value="Slack = 10" style="text;html=1;align=center;verticalAlign=middle;whiteSpace=wrap;rounded=0;" parent="1" vertex="1">
          <mxGeometry x="4199" y="562" width="80" height="19" as="geometry" />
        </mxCell>
        <mxCell id="dm9eH3l4-ublejLlUbJZ-309" value="" style="endArrow=classic;html=1;rounded=0;exitX=1.02;exitY=0.607;exitDx=0;exitDy=0;exitPerimeter=0;entryX=0;entryY=0.5;entryDx=0;entryDy=0;" parent="1" source="dm9eH3l4-ublejLlUbJZ-90" target="dm9eH3l4-ublejLlUbJZ-295" edge="1">
          <mxGeometry width="50" height="50" relative="1" as="geometry">
            <mxPoint x="3990" y="571" as="sourcePoint" />
            <mxPoint x="4040" y="521" as="targetPoint" />
          </mxGeometry>
        </mxCell>
        <mxCell id="dm9eH3l4-ublejLlUbJZ-310" value="" style="endArrow=classic;html=1;rounded=0;exitX=0.975;exitY=0.556;exitDx=0;exitDy=0;exitPerimeter=0;entryX=0;entryY=0.5;entryDx=0;entryDy=0;" parent="1" source="dm9eH3l4-ublejLlUbJZ-235" target="dm9eH3l4-ublejLlUbJZ-281" edge="1">
          <mxGeometry width="50" height="50" relative="1" as="geometry">
            <mxPoint x="3990" y="291" as="sourcePoint" />
            <mxPoint x="4040" y="241" as="targetPoint" />
          </mxGeometry>
        </mxCell>
        <mxCell id="dm9eH3l4-ublejLlUbJZ-311" value="" style="whiteSpace=wrap;html=1;aspect=fixed;strokeWidth=1;" parent="1" vertex="1">
          <mxGeometry x="4000" y="618" width="80" height="80" as="geometry" />
        </mxCell>
        <mxCell id="dm9eH3l4-ublejLlUbJZ-312" value="" style="line;strokeWidth=1;html=1;" parent="1" vertex="1">
          <mxGeometry x="4000" y="638" width="80" height="10" as="geometry" />
        </mxCell>
        <mxCell id="dm9eH3l4-ublejLlUbJZ-313" value="" style="line;strokeWidth=1;html=1;" parent="1" vertex="1">
          <mxGeometry x="4000" y="668" width="80" height="10" as="geometry" />
        </mxCell>
        <mxCell id="dm9eH3l4-ublejLlUbJZ-314" value="" style="line;strokeWidth=1;direction=south;html=1;" parent="1" vertex="1">
          <mxGeometry x="4011" y="618" width="20" height="25" as="geometry" />
        </mxCell>
        <mxCell id="dm9eH3l4-ublejLlUbJZ-315" value="" style="line;strokeWidth=1;direction=south;html=1;" parent="1" vertex="1">
          <mxGeometry x="4011" y="673" width="20" height="25" as="geometry" />
        </mxCell>
        <mxCell id="dm9eH3l4-ublejLlUbJZ-316" value="" style="line;strokeWidth=1;direction=south;html=1;" parent="1" vertex="1">
          <mxGeometry x="4050" y="618" width="20" height="25" as="geometry" />
        </mxCell>
        <mxCell id="dm9eH3l4-ublejLlUbJZ-317" value="" style="line;strokeWidth=1;direction=south;html=1;" parent="1" vertex="1">
          <mxGeometry x="4050" y="673" width="20" height="25" as="geometry" />
        </mxCell>
        <mxCell id="dm9eH3l4-ublejLlUbJZ-318" value="20" style="text;html=1;align=center;verticalAlign=middle;whiteSpace=wrap;rounded=0;" parent="1" vertex="1">
          <mxGeometry x="4020" y="654" width="40" height="19" as="geometry" />
        </mxCell>
        <mxCell id="dm9eH3l4-ublejLlUbJZ-319" value="45" style="text;html=1;align=center;verticalAlign=middle;whiteSpace=wrap;rounded=0;" parent="1" vertex="1">
          <mxGeometry x="3991" y="621" width="40" height="19" as="geometry" />
        </mxCell>
        <mxCell id="dm9eH3l4-ublejLlUbJZ-320" value="65" style="text;html=1;align=center;verticalAlign=middle;whiteSpace=wrap;rounded=0;" parent="1" vertex="1">
          <mxGeometry x="4050" y="621" width="40" height="19" as="geometry" />
        </mxCell>
        <mxCell id="dm9eH3l4-ublejLlUbJZ-321" value="51" style="text;html=1;align=center;verticalAlign=middle;whiteSpace=wrap;rounded=0;" parent="1" vertex="1">
          <mxGeometry x="3991" y="676" width="40" height="19" as="geometry" />
        </mxCell>
        <mxCell id="dm9eH3l4-ublejLlUbJZ-322" value="71" style="text;html=1;align=center;verticalAlign=middle;whiteSpace=wrap;rounded=0;" parent="1" vertex="1">
          <mxGeometry x="4050" y="676" width="40" height="19" as="geometry" />
        </mxCell>
        <mxCell id="dm9eH3l4-ublejLlUbJZ-323" value="T" style="text;html=1;align=center;verticalAlign=middle;whiteSpace=wrap;rounded=0;" parent="1" vertex="1">
          <mxGeometry x="4020" y="642" width="40" height="19" as="geometry" />
        </mxCell>
        <mxCell id="dm9eH3l4-ublejLlUbJZ-324" value="Slack = 6" style="text;html=1;align=center;verticalAlign=middle;whiteSpace=wrap;rounded=0;" parent="1" vertex="1">
          <mxGeometry x="4000" y="698" width="80" height="19" as="geometry" />
        </mxCell>
        <mxCell id="dm9eH3l4-ublejLlUbJZ-325" value="" style="endArrow=classic;html=1;rounded=0;exitX=1;exitY=0.5;exitDx=0;exitDy=0;entryX=0;entryY=0.5;entryDx=0;entryDy=0;" parent="1" source="dm9eH3l4-ublejLlUbJZ-251" target="dm9eH3l4-ublejLlUbJZ-311" edge="1">
          <mxGeometry width="50" height="50" relative="1" as="geometry">
            <mxPoint x="3900" y="651" as="sourcePoint" />
            <mxPoint x="3950" y="601" as="targetPoint" />
          </mxGeometry>
        </mxCell>
        <mxCell id="dm9eH3l4-ublejLlUbJZ-326" value="" style="whiteSpace=wrap;html=1;aspect=fixed;strokeWidth=1;" parent="1" vertex="1">
          <mxGeometry x="4208" y="624" width="80" height="80" as="geometry" />
        </mxCell>
        <mxCell id="dm9eH3l4-ublejLlUbJZ-327" value="" style="line;strokeWidth=1;html=1;" parent="1" vertex="1">
          <mxGeometry x="4208" y="644" width="80" height="10" as="geometry" />
        </mxCell>
        <mxCell id="dm9eH3l4-ublejLlUbJZ-328" value="" style="line;strokeWidth=1;html=1;" parent="1" vertex="1">
          <mxGeometry x="4208" y="674" width="80" height="10" as="geometry" />
        </mxCell>
        <mxCell id="dm9eH3l4-ublejLlUbJZ-329" value="" style="line;strokeWidth=1;direction=south;html=1;" parent="1" vertex="1">
          <mxGeometry x="4219" y="624" width="20" height="25" as="geometry" />
        </mxCell>
        <mxCell id="dm9eH3l4-ublejLlUbJZ-330" value="" style="line;strokeWidth=1;direction=south;html=1;" parent="1" vertex="1">
          <mxGeometry x="4219" y="679" width="20" height="25" as="geometry" />
        </mxCell>
        <mxCell id="dm9eH3l4-ublejLlUbJZ-331" value="" style="line;strokeWidth=1;direction=south;html=1;" parent="1" vertex="1">
          <mxGeometry x="4258" y="624" width="20" height="25" as="geometry" />
        </mxCell>
        <mxCell id="dm9eH3l4-ublejLlUbJZ-332" value="" style="line;strokeWidth=1;direction=south;html=1;" parent="1" vertex="1">
          <mxGeometry x="4258" y="679" width="20" height="25" as="geometry" />
        </mxCell>
        <mxCell id="dm9eH3l4-ublejLlUbJZ-333" value="10" style="text;html=1;align=center;verticalAlign=middle;whiteSpace=wrap;rounded=0;" parent="1" vertex="1">
          <mxGeometry x="4228" y="660" width="40" height="19" as="geometry" />
        </mxCell>
        <mxCell id="dm9eH3l4-ublejLlUbJZ-334" value="65" style="text;html=1;align=center;verticalAlign=middle;whiteSpace=wrap;rounded=0;" parent="1" vertex="1">
          <mxGeometry x="4199" y="627" width="40" height="19" as="geometry" />
        </mxCell>
        <mxCell id="dm9eH3l4-ublejLlUbJZ-335" value="75" style="text;html=1;align=center;verticalAlign=middle;whiteSpace=wrap;rounded=0;" parent="1" vertex="1">
          <mxGeometry x="4258" y="627" width="40" height="19" as="geometry" />
        </mxCell>
        <mxCell id="dm9eH3l4-ublejLlUbJZ-336" value="71" style="text;html=1;align=center;verticalAlign=middle;whiteSpace=wrap;rounded=0;" parent="1" vertex="1">
          <mxGeometry x="4199" y="682" width="40" height="19" as="geometry" />
        </mxCell>
        <mxCell id="dm9eH3l4-ublejLlUbJZ-337" value="81" style="text;html=1;align=center;verticalAlign=middle;whiteSpace=wrap;rounded=0;" parent="1" vertex="1">
          <mxGeometry x="4258" y="682" width="40" height="19" as="geometry" />
        </mxCell>
        <mxCell id="dm9eH3l4-ublejLlUbJZ-338" value="U" style="text;html=1;align=center;verticalAlign=middle;whiteSpace=wrap;rounded=0;" parent="1" vertex="1">
          <mxGeometry x="4228" y="648" width="40" height="19" as="geometry" />
        </mxCell>
        <mxCell id="dm9eH3l4-ublejLlUbJZ-339" value="Slack = 6" style="text;html=1;align=center;verticalAlign=middle;whiteSpace=wrap;rounded=0;" parent="1" vertex="1">
          <mxGeometry x="4208" y="704" width="80" height="19" as="geometry" />
        </mxCell>
        <mxCell id="dm9eH3l4-ublejLlUbJZ-340" value="" style="endArrow=classic;html=1;rounded=0;exitX=1;exitY=0.5;exitDx=0;exitDy=0;entryX=0;entryY=0.43;entryDx=0;entryDy=0;entryPerimeter=0;" parent="1" source="dm9eH3l4-ublejLlUbJZ-311" target="dm9eH3l4-ublejLlUbJZ-326" edge="1">
          <mxGeometry width="50" height="50" relative="1" as="geometry">
            <mxPoint x="4120" y="641" as="sourcePoint" />
            <mxPoint x="4170" y="591" as="targetPoint" />
          </mxGeometry>
        </mxCell>
        <mxCell id="dm9eH3l4-ublejLlUbJZ-341" value="" style="whiteSpace=wrap;html=1;aspect=fixed;strokeWidth=1;" parent="1" vertex="1">
          <mxGeometry x="4389" y="283" width="80" height="80" as="geometry" />
        </mxCell>
        <mxCell id="dm9eH3l4-ublejLlUbJZ-342" value="" style="line;strokeWidth=1;html=1;" parent="1" vertex="1">
          <mxGeometry x="4389" y="303" width="80" height="10" as="geometry" />
        </mxCell>
        <mxCell id="dm9eH3l4-ublejLlUbJZ-343" value="" style="line;strokeWidth=1;html=1;" parent="1" vertex="1">
          <mxGeometry x="4389" y="333" width="80" height="10" as="geometry" />
        </mxCell>
        <mxCell id="dm9eH3l4-ublejLlUbJZ-344" value="" style="line;strokeWidth=1;direction=south;html=1;" parent="1" vertex="1">
          <mxGeometry x="4400" y="283" width="20" height="25" as="geometry" />
        </mxCell>
        <mxCell id="dm9eH3l4-ublejLlUbJZ-345" value="" style="line;strokeWidth=1;direction=south;html=1;" parent="1" vertex="1">
          <mxGeometry x="4400" y="338" width="20" height="25" as="geometry" />
        </mxCell>
        <mxCell id="dm9eH3l4-ublejLlUbJZ-346" value="" style="line;strokeWidth=1;direction=south;html=1;" parent="1" vertex="1">
          <mxGeometry x="4439" y="283" width="20" height="25" as="geometry" />
        </mxCell>
        <mxCell id="dm9eH3l4-ublejLlUbJZ-347" value="" style="line;strokeWidth=1;direction=south;html=1;" parent="1" vertex="1">
          <mxGeometry x="4439" y="338" width="20" height="25" as="geometry" />
        </mxCell>
        <mxCell id="dm9eH3l4-ublejLlUbJZ-348" value="7" style="text;html=1;align=center;verticalAlign=middle;whiteSpace=wrap;rounded=0;" parent="1" vertex="1">
          <mxGeometry x="4409" y="319" width="40" height="19" as="geometry" />
        </mxCell>
        <mxCell id="dm9eH3l4-ublejLlUbJZ-349" value="74" style="text;html=1;align=center;verticalAlign=middle;whiteSpace=wrap;rounded=0;" parent="1" vertex="1">
          <mxGeometry x="4380" y="286" width="40" height="19" as="geometry" />
        </mxCell>
        <mxCell id="dm9eH3l4-ublejLlUbJZ-350" value="81" style="text;html=1;align=center;verticalAlign=middle;whiteSpace=wrap;rounded=0;" parent="1" vertex="1">
          <mxGeometry x="4439" y="286" width="40" height="19" as="geometry" />
        </mxCell>
        <mxCell id="dm9eH3l4-ublejLlUbJZ-351" value="74" style="text;html=1;align=center;verticalAlign=middle;whiteSpace=wrap;rounded=0;" parent="1" vertex="1">
          <mxGeometry x="4380" y="341" width="40" height="19" as="geometry" />
        </mxCell>
        <mxCell id="dm9eH3l4-ublejLlUbJZ-352" value="81" style="text;html=1;align=center;verticalAlign=middle;whiteSpace=wrap;rounded=0;" parent="1" vertex="1">
          <mxGeometry x="4439" y="341" width="40" height="19" as="geometry" />
        </mxCell>
        <mxCell id="dm9eH3l4-ublejLlUbJZ-353" value="V" style="text;html=1;align=center;verticalAlign=middle;whiteSpace=wrap;rounded=0;" parent="1" vertex="1">
          <mxGeometry x="4409" y="307" width="40" height="19" as="geometry" />
        </mxCell>
        <mxCell id="dm9eH3l4-ublejLlUbJZ-354" value="Slack = 0" style="text;html=1;align=center;verticalAlign=middle;whiteSpace=wrap;rounded=0;" parent="1" vertex="1">
          <mxGeometry x="4389" y="363" width="80" height="19" as="geometry" />
        </mxCell>
        <mxCell id="dm9eH3l4-ublejLlUbJZ-355" value="" style="endArrow=classic;html=1;rounded=0;exitX=1;exitY=0.5;exitDx=0;exitDy=0;entryX=-0.012;entryY=0.628;entryDx=0;entryDy=0;entryPerimeter=0;" parent="1" source="dm9eH3l4-ublejLlUbJZ-295" target="dm9eH3l4-ublejLlUbJZ-341" edge="1">
          <mxGeometry width="50" height="50" relative="1" as="geometry">
            <mxPoint x="4370" y="521" as="sourcePoint" />
            <mxPoint x="4420" y="471" as="targetPoint" />
          </mxGeometry>
        </mxCell>
        <mxCell id="dm9eH3l4-ublejLlUbJZ-356" value="" style="endArrow=classic;html=1;rounded=0;exitX=1;exitY=0.5;exitDx=0;exitDy=0;entryX=0;entryY=0.5;entryDx=0;entryDy=0;" parent="1" source="dm9eH3l4-ublejLlUbJZ-281" target="dm9eH3l4-ublejLlUbJZ-341" edge="1">
          <mxGeometry width="50" height="50" relative="1" as="geometry">
            <mxPoint x="4200" y="291" as="sourcePoint" />
            <mxPoint x="4250" y="241" as="targetPoint" />
          </mxGeometry>
        </mxCell>
        <mxCell id="dm9eH3l4-ublejLlUbJZ-357" value="" style="whiteSpace=wrap;html=1;aspect=fixed;strokeWidth=1;" parent="1" vertex="1">
          <mxGeometry x="4549" y="477" width="80" height="80" as="geometry" />
        </mxCell>
        <mxCell id="dm9eH3l4-ublejLlUbJZ-358" value="" style="line;strokeWidth=1;html=1;" parent="1" vertex="1">
          <mxGeometry x="4549" y="497" width="80" height="10" as="geometry" />
        </mxCell>
        <mxCell id="dm9eH3l4-ublejLlUbJZ-359" value="" style="line;strokeWidth=1;html=1;" parent="1" vertex="1">
          <mxGeometry x="4549" y="527" width="80" height="10" as="geometry" />
        </mxCell>
        <mxCell id="dm9eH3l4-ublejLlUbJZ-360" value="" style="line;strokeWidth=1;direction=south;html=1;" parent="1" vertex="1">
          <mxGeometry x="4560" y="477" width="20" height="25" as="geometry" />
        </mxCell>
        <mxCell id="dm9eH3l4-ublejLlUbJZ-361" value="" style="line;strokeWidth=1;direction=south;html=1;" parent="1" vertex="1">
          <mxGeometry x="4560" y="532" width="20" height="25" as="geometry" />
        </mxCell>
        <mxCell id="dm9eH3l4-ublejLlUbJZ-362" value="" style="line;strokeWidth=1;direction=south;html=1;" parent="1" vertex="1">
          <mxGeometry x="4599" y="477" width="20" height="25" as="geometry" />
        </mxCell>
        <mxCell id="dm9eH3l4-ublejLlUbJZ-363" value="" style="line;strokeWidth=1;direction=south;html=1;" parent="1" vertex="1">
          <mxGeometry x="4599" y="532" width="20" height="25" as="geometry" />
        </mxCell>
        <mxCell id="dm9eH3l4-ublejLlUbJZ-364" value="0" style="text;html=1;align=center;verticalAlign=middle;whiteSpace=wrap;rounded=0;" parent="1" vertex="1">
          <mxGeometry x="4569" y="513" width="40" height="19" as="geometry" />
        </mxCell>
        <mxCell id="dm9eH3l4-ublejLlUbJZ-365" value="81" style="text;html=1;align=center;verticalAlign=middle;whiteSpace=wrap;rounded=0;" parent="1" vertex="1">
          <mxGeometry x="4540" y="480" width="40" height="19" as="geometry" />
        </mxCell>
        <mxCell id="dm9eH3l4-ublejLlUbJZ-366" value="81" style="text;html=1;align=center;verticalAlign=middle;whiteSpace=wrap;rounded=0;" parent="1" vertex="1">
          <mxGeometry x="4599" y="480" width="40" height="19" as="geometry" />
        </mxCell>
        <mxCell id="dm9eH3l4-ublejLlUbJZ-367" value="81" style="text;html=1;align=center;verticalAlign=middle;whiteSpace=wrap;rounded=0;" parent="1" vertex="1">
          <mxGeometry x="4540" y="535" width="40" height="19" as="geometry" />
        </mxCell>
        <mxCell id="dm9eH3l4-ublejLlUbJZ-368" value="81" style="text;html=1;align=center;verticalAlign=middle;whiteSpace=wrap;rounded=0;" parent="1" vertex="1">
          <mxGeometry x="4599" y="535" width="40" height="19" as="geometry" />
        </mxCell>
        <mxCell id="dm9eH3l4-ublejLlUbJZ-369" value="Finish" style="text;html=1;align=center;verticalAlign=middle;whiteSpace=wrap;rounded=0;" parent="1" vertex="1">
          <mxGeometry x="4569" y="501" width="40" height="19" as="geometry" />
        </mxCell>
        <mxCell id="dm9eH3l4-ublejLlUbJZ-370" value="Slack = 0" style="text;html=1;align=center;verticalAlign=middle;whiteSpace=wrap;rounded=0;" parent="1" vertex="1">
          <mxGeometry x="4549" y="557" width="80" height="19" as="geometry" />
        </mxCell>
        <mxCell id="dm9eH3l4-ublejLlUbJZ-371" value="" style="endArrow=classic;html=1;rounded=0;exitX=1;exitY=0.5;exitDx=0;exitDy=0;entryX=0;entryY=0.5;entryDx=0;entryDy=0;" parent="1" source="dm9eH3l4-ublejLlUbJZ-326" target="dm9eH3l4-ublejLlUbJZ-357" edge="1">
          <mxGeometry width="50" height="50" relative="1" as="geometry">
            <mxPoint x="4330" y="671" as="sourcePoint" />
            <mxPoint x="4380" y="621" as="targetPoint" />
          </mxGeometry>
        </mxCell>
        <mxCell id="dm9eH3l4-ublejLlUbJZ-372" value="" style="endArrow=classic;html=1;rounded=0;exitX=1;exitY=0.5;exitDx=0;exitDy=0;entryX=0;entryY=0.5;entryDx=0;entryDy=0;" parent="1" source="dm9eH3l4-ublejLlUbJZ-341" target="dm9eH3l4-ublejLlUbJZ-357" edge="1">
          <mxGeometry width="50" height="50" relative="1" as="geometry">
            <mxPoint x="4520" y="391" as="sourcePoint" />
            <mxPoint x="4570" y="341" as="targetPoint" />
          </mxGeometry>
        </mxCell>
        <mxCell id="dm9eH3l4-ublejLlUbJZ-373" value="" style="endArrow=classic;html=1;rounded=0;exitX=0.986;exitY=0.401;exitDx=0;exitDy=0;exitPerimeter=0;entryX=0;entryY=0.5;entryDx=0;entryDy=0;" parent="1" source="dm9eH3l4-ublejLlUbJZ-15" target="dm9eH3l4-ublejLlUbJZ-45" edge="1">
          <mxGeometry width="50" height="50" relative="1" as="geometry">
            <mxPoint x="3290" y="80.5" as="sourcePoint" />
            <mxPoint x="3340" y="30.5" as="targetPoint" />
          </mxGeometry>
        </mxCell>
        <mxCell id="dm9eH3l4-ublejLlUbJZ-374" value="" style="endArrow=classic;html=1;rounded=0;exitX=1;exitY=0.5;exitDx=0;exitDy=0;entryX=0;entryY=0.5;entryDx=0;entryDy=0;" parent="1" source="dm9eH3l4-ublejLlUbJZ-266" target="dm9eH3l4-ublejLlUbJZ-357" edge="1">
          <mxGeometry width="50" height="50" relative="1" as="geometry">
            <mxPoint x="4158" y="421" as="sourcePoint" />
            <mxPoint x="4259" y="419" as="targetPoint" />
          </mxGeometry>
        </mxCell>
        <mxCell id="dm9eH3l4-ublejLlUbJZ-375" value="" style="endArrow=classic;html=1;rounded=0;exitX=1;exitY=0.5;exitDx=0;exitDy=0;entryX=0;entryY=0.5;entryDx=0;entryDy=0;" parent="1" source="dm9eH3l4-ublejLlUbJZ-219" target="dm9eH3l4-ublejLlUbJZ-295" edge="1">
          <mxGeometry width="50" height="50" relative="1" as="geometry">
            <mxPoint x="3984" y="565.5" as="sourcePoint" />
            <mxPoint x="4085" y="563.5" as="targetPoint" />
          </mxGeometry>
        </mxCell>
      </root>
    </mxGraphModel>
  </diagram>
</mxfile>
